<svg width="60" height="83" viewBox="0 0 60 83" fill="none" xmlns="http://www.w3.org/2000/svg">
<path d="M46.359 82.413C45.4783 82.413 44.6924 82.1881 44.0011 81.7383C43.3145 81.2838 42.7747 80.6375 42.3817 79.7994C41.9935 78.9566 41.7994 77.9457 41.7994 76.7667C41.7994 75.5877 41.9959 74.5792 42.3889 73.7411C42.7866 72.9031 43.3311 72.2615 44.0224 71.8164C44.7137 71.3714 45.4973 71.1488 46.3732 71.1488C47.0503 71.1488 47.5948 71.2625 48.0067 71.4897C48.4234 71.7123 48.7454 71.9727 48.9727 72.271C49.2047 72.5693 49.3846 72.8321 49.5124 73.0593H49.6403V67.6545H51.7639V82.2H49.69V80.5025H49.5124C49.3846 80.7345 49.1999 80.9997 48.9585 81.298C48.7217 81.5963 48.395 81.8567 47.9783 82.0792C47.5617 82.3017 47.0219 82.413 46.359 82.413ZM46.8278 80.6019C47.4386 80.6019 47.9547 80.441 48.3761 80.119C48.8022 79.7923 49.1242 79.3401 49.342 78.7625C49.5645 78.1848 49.6758 77.5125 49.6758 76.7454C49.6758 75.9878 49.5669 75.3249 49.3491 74.7568C49.1313 74.1886 48.8117 73.7459 48.3903 73.4286C47.9689 73.1114 47.448 72.9528 46.8278 72.9528C46.1886 72.9528 45.6559 73.1185 45.2298 73.45C44.8036 73.7814 44.4817 74.2336 44.2639 74.8065C44.0508 75.3794 43.9442 76.0257 43.9442 76.7454C43.9442 77.4746 44.0531 78.1304 44.271 78.7127C44.4888 79.2951 44.8107 79.7568 45.2369 80.0977C45.6677 80.4339 46.198 80.6019 46.8278 80.6019Z" fill="#FF6B00"/>
<path d="M34.0632 82.4414C33.3719 82.4414 32.7469 82.3136 32.1882 82.0579C31.6295 81.7975 31.1868 81.4211 30.8601 80.9286C30.5381 80.4362 30.3771 79.8325 30.3771 79.1176C30.3771 78.502 30.4955 77.9954 30.7322 77.5977C30.969 77.2 31.2886 76.8851 31.6911 76.6531C32.0935 76.4211 32.5433 76.2459 33.0405 76.1275C33.5376 76.0091 34.0443 75.9192 34.5604 75.8576C35.2138 75.7819 35.7441 75.7203 36.1513 75.673C36.5585 75.6209 36.8544 75.538 37.0391 75.4244C37.2237 75.3107 37.3161 75.1261 37.3161 74.8704V74.8207C37.3161 74.2004 37.1409 73.7198 36.7905 73.3789C36.4448 73.038 35.9287 72.8676 35.2422 72.8676C34.5272 72.8676 33.9638 73.0262 33.5518 73.3434C33.1447 73.6559 32.8629 74.0039 32.7067 74.3875L30.7109 73.9329C30.9477 73.27 31.2933 72.735 31.7479 72.3278C32.2071 71.9159 32.7351 71.6176 33.3317 71.4329C33.9283 71.2435 34.5556 71.1488 35.2138 71.1488C35.6494 71.1488 36.111 71.2009 36.5987 71.3051C37.0911 71.4045 37.5504 71.5892 37.9766 71.859C38.4074 72.1289 38.7602 72.5148 39.0348 73.0167C39.3094 73.5139 39.4467 74.1602 39.4467 74.9556V82.2H37.3729V80.7085H37.2876C37.1503 80.9831 36.9444 81.253 36.6697 81.5181C36.3951 81.7833 36.0424 82.0035 35.6115 82.1786C35.1806 82.3538 34.6645 82.4414 34.0632 82.4414ZM34.5249 80.7369C35.112 80.7369 35.6139 80.6209 36.0305 80.3889C36.4519 80.1569 36.7715 79.8538 36.9893 79.4798C37.2119 79.101 37.3232 78.6962 37.3232 78.2653V76.859C37.2474 76.9348 37.1006 77.0058 36.8828 77.0721C36.6697 77.1337 36.4259 77.1881 36.1513 77.2355C35.8767 77.2781 35.6091 77.3183 35.3487 77.3562C35.0883 77.3893 34.8705 77.4178 34.6953 77.4414C34.2834 77.4935 33.907 77.5811 33.5661 77.7042C33.2299 77.8273 32.96 78.0049 32.7564 78.2369C32.5575 78.4642 32.4581 78.7672 32.4581 79.146C32.4581 79.6715 32.6522 80.0693 33.0405 80.3392C33.4287 80.6043 33.9235 80.7369 34.5249 80.7369Z" fill="#FF6B00"/>
<path d="M28.3406 73.9542L26.4158 74.2951C26.3353 74.0489 26.2075 73.8145 26.0323 73.592C25.8619 73.3695 25.6299 73.1872 25.3363 73.0451C25.0427 72.9031 24.6758 72.8321 24.2354 72.8321C23.6341 72.8321 23.1322 72.967 22.7298 73.2369C22.3273 73.502 22.1261 73.8453 22.1261 74.2667C22.1261 74.6313 22.261 74.9249 22.5309 75.1474C22.8008 75.3699 23.2364 75.5522 23.8377 75.6943L25.5707 76.092C26.5745 76.324 27.3226 76.6815 27.815 77.1644C28.3074 77.6474 28.5536 78.2748 28.5536 79.0465C28.5536 79.7 28.3642 80.2823 27.9854 80.7937C27.6114 81.3003 27.0882 81.6981 26.4158 81.9869C25.7482 82.2757 24.9741 82.4201 24.0934 82.4201C22.8718 82.4201 21.8751 82.1597 21.1033 81.6389C20.3316 81.1133 19.8581 80.3676 19.6829 79.4017L21.7354 79.0892C21.8633 79.6242 22.1261 80.029 22.5238 80.3036C22.9215 80.5735 23.44 80.7085 24.0792 80.7085C24.7752 80.7085 25.3316 80.5641 25.7482 80.2752C26.1649 79.9817 26.3732 79.6242 26.3732 79.2028C26.3732 78.8619 26.2454 78.5754 25.9897 78.3434C25.7388 78.1114 25.3529 77.9362 24.832 77.8179L22.9854 77.413C21.9674 77.181 21.2146 76.8117 20.7269 76.3051C20.244 75.7984 20.0025 75.1569 20.0025 74.3804C20.0025 73.7364 20.1824 73.173 20.5423 72.69C20.9021 72.2071 21.3993 71.8306 22.0337 71.5608C22.6682 71.2861 23.395 71.1488 24.2141 71.1488C25.3931 71.1488 26.3211 71.4045 26.9982 71.9159C27.6753 72.4225 28.1228 73.1019 28.3406 73.9542Z" fill="#FF6B00"/>
<path d="M13.1293 82.4201C12.0545 82.4201 11.1288 82.1905 10.3523 81.7312C9.58049 81.2672 8.9839 80.6161 8.5625 79.7781C8.14583 78.9353 7.9375 77.9481 7.9375 76.8164C7.9375 75.699 8.14583 74.7142 8.5625 73.8619C8.9839 73.0096 9.57102 72.3444 10.3239 71.8661C11.0814 71.3879 11.9669 71.1488 12.9801 71.1488C13.5956 71.1488 14.1922 71.2506 14.7699 71.4542C15.3475 71.6578 15.866 71.9774 16.3253 72.413C16.7846 72.8486 17.1468 73.4144 17.4119 74.1105C17.6771 74.8017 17.8097 75.6422 17.8097 76.6318V77.3846H9.13778V75.7937H15.7287C15.7287 75.235 15.6151 74.7402 15.3878 74.3093C15.1605 73.8737 14.8409 73.5304 14.429 73.2795C14.0218 73.0285 13.5436 72.9031 12.9943 72.9031C12.3977 72.9031 11.8769 73.0499 11.4318 73.3434C10.9915 73.6322 10.6506 74.011 10.4091 74.4798C10.1723 74.9438 10.054 75.4481 10.054 75.9926V77.2355C10.054 77.9646 10.1818 78.5849 10.4375 79.0963C10.6979 79.6076 11.0601 79.9982 11.5241 80.2681C11.9882 80.5333 12.5303 80.6659 13.1506 80.6659C13.553 80.6659 13.92 80.609 14.2514 80.4954C14.5829 80.377 14.8693 80.2018 15.1108 79.9698C15.3523 79.7378 15.5369 79.4514 15.6648 79.1105L17.6747 79.4727C17.5137 80.0645 17.2249 80.583 16.8082 81.0281C16.3963 81.4684 15.8778 81.8117 15.2528 82.0579C14.6326 82.2994 13.9247 82.4201 13.1293 82.4201ZM12.0213 69.8349L13.6832 66.5607H15.9205L13.7188 69.8349H12.0213Z" fill="#FF6B00"/>
<path d="M0 0V58.2H60V12.3L40.5 19.2L0 0Z" fill="#FF6B00"/>
</svg>
