<svg width="20" height="8" viewBox="0 0 20 8" fill="none" xmlns="http://www.w3.org/2000/svg">
<g clip-path="url(#clip0_961_41425)">
<rect x="19.5" y="7" width="2.71429" height="6" rx="1.35714" transform="rotate(-180 19.5 7)" stroke="black"/>
<rect x="16.7856" y="7" width="2.71429" height="6" rx="1.35714" transform="rotate(-180 16.7856 7)" stroke="black"/>
<rect x="14.0715" y="7" width="2.71429" height="6" rx="1.35714" transform="rotate(-180 14.0715 7)" fill="black" stroke="black"/>
<rect x="11.3572" y="7" width="2.71429" height="6" rx="1.35714" transform="rotate(-180 11.3572 7)" fill="black" stroke="black"/>
<rect x="8.64282" y="7" width="2.71429" height="6" rx="1.35714" transform="rotate(-180 8.64282 7)" fill="black" stroke="black"/>
<rect x="5.92871" y="7" width="2.71429" height="6" rx="1.35714" transform="rotate(-180 5.92871 7)" fill="black" stroke="black"/>
<rect x="3.21436" y="7" width="2.71429" height="6" rx="1.35714" transform="rotate(-180 3.21436 7)" fill="black" stroke="black"/>
</g>
<rect x="19.5" y="7" width="19" height="6" rx="1.5" transform="rotate(-180 19.5 7)" stroke="black"/>
<defs>
<clipPath id="clip0_961_41425">
<rect x="20" y="7.5" width="20" height="7" rx="2" transform="rotate(-180 20 7.5)" fill="white"/>
</clipPath>
</defs>
</svg>
