<svg width="501" height="1001" viewBox="0 0 501 1001" fill="none" xmlns="http://www.w3.org/2000/svg">
<path fill-rule="evenodd" clip-rule="evenodd" d="M500.147 0.453613H0.146606V1000.45H500.147V0.453613ZM470.147 500.454C470.147 621.956 371.649 720.454 250.147 720.454C128.644 720.454 30.1466 621.956 30.1466 500.454C30.1466 378.951 128.644 280.454 250.147 280.454C371.649 280.454 470.147 378.951 470.147 500.454Z" fill="white"/>
<path d="M469.147 500.454C469.147 621.404 371.097 719.454 250.147 719.454C129.196 719.454 31.1466 621.404 31.1466 500.454C31.1466 379.503 129.196 281.454 250.147 281.454C371.097 281.454 469.147 379.503 469.147 500.454Z" stroke="#FF0000" stroke-width="2"/>
</svg>
