<?xml version="1.0" standalone="no"?>
<!DOCTYPE svg PUBLIC "-//W3C//DTD SVG 20010904//EN"
 "http://www.w3.org/TR/2001/REC-SVG-20010904/DTD/svg10.dtd">
<svg version="1.0" xmlns="http://www.w3.org/2000/svg"
 width="401.000000pt" height="401.000000pt" viewBox="0 0 401.000000 401.000000"
 preserveAspectRatio="xMidYMid meet">
<metadata>
Created by potrace 1.14, written by Peter Selinger 2001-2017
</metadata>
<g transform="translate(0.000000,401.000000) scale(0.100000,-0.100000)"
fill="#000000" stroke="none">
<path d="M2898 3135 c-2 -2 -57 -8 -123 -14 -66 -6 -142 -13 -170 -16 -113
-11 -407 -35 -423 -35 -10 0 -40 -20 -69 -45 -54 -48 -77 -54 -109 -30 -10 8
-27 15 -36 15 -38 0 -16 19 30 25 26 3 56 10 67 16 19 8 -79 6 -255 -7 -120
-9 -464 -5 -540 5 -102 14 -165 14 -178 -2 -7 -8 -7 -48 0 -131 l10 -119 -32
-28 c-47 -41 -122 -100 -210 -163 -45 -33 -49 -53 -21 -100 10 -17 26 -58 36
-91 9 -33 32 -105 52 -160 19 -55 37 -109 40 -120 3 -11 8 -29 13 -40 17 -44
50 -153 50 -166 0 -9 -68 -43 -172 -88 -258 -109 -295 -129 -308 -162 -16 -37
11 -94 59 -127 58 -38 73 -37 166 8 101 49 275 110 314 110 31 0 33 -4 82
-154 l23 -69 -37 -31 c-34 -29 -114 -162 -104 -172 2 -3 37 40 77 96 39 55 76
102 81 105 4 3 31 3 60 -1 44 -6 52 -11 61 -34 8 -24 16 -29 66 -36 31 -5 62
-7 67 -6 6 1 41 9 78 17 61 14 70 14 90 0 12 -8 31 -15 44 -15 31 0 39 -19 14
-36 -17 -12 -19 -19 -10 -35 5 -11 9 -32 7 -47 -3 -24 -12 -30 -98 -59 -52
-18 -100 -40 -106 -48 -14 -19 -24 -19 -24 -1 0 38 -71 12 -95 -34 -8 -15 -21
-30 -30 -33 -8 -4 -15 -13 -15 -22 0 -25 46 -18 68 10 11 14 23 25 27 25 4 0
2 -6 -4 -14 -8 -10 -9 -16 -1 -21 7 -4 7 -12 0 -25 -13 -24 3 -35 30 -20 26
14 50 -7 50 -46 0 -30 18 -56 133 -194 88 -105 125 -140 147 -140 8 0 48 16
90 35 41 19 192 80 335 136 l259 102 121 -12 c191 -20 402 -24 412 -9 4 7 8
65 8 128 0 67 5 126 12 143 12 25 17 27 71 27 32 0 81 -7 108 -15 56 -17 74
-19 74 -6 0 17 -103 52 -171 58 -38 3 -69 9 -69 12 1 3 7 33 13 66 l13 60 60
-3 c46 -2 66 2 89 18 36 24 28 26 -19 4 -39 -19 -104 -12 -113 12 -3 8 0 41 6
72 7 31 13 63 15 69 1 7 12 23 23 35 20 21 21 29 13 108 -5 47 -11 143 -14
213 -5 122 -5 129 14 134 38 10 61 65 61 147 0 65 3 76 19 81 10 3 33 22 49
41 25 28 31 44 31 81 0 44 -4 51 -55 100 -30 29 -79 64 -109 77 -63 28 -62 25
-71 221 -10 210 -16 277 -26 296 -5 10 -7 30 -3 44 6 25 -10 37 -19 13 -3 -10
-9 -9 -23 3 -16 14 -67 23 -76 14z m86 -62 c-1 -18 -11 -44 -23 -59 -11 -14
-18 -30 -16 -34 3 -5 1 -11 -5 -15 -5 -3 -10 -17 -10 -30 0 -36 -19 -40 -33
-6 -13 29 -13 30 -26 9 -9 -15 -15 -17 -20 -9 -9 15 3 102 19 130 9 17 8 22
-5 27 -8 3 -22 4 -30 1 -8 -4 -17 -2 -20 3 -5 8 82 18 145 16 22 -1 25 -5 24
-33z m-197 11 c-3 -3 -12 -4 -19 -1 -8 3 -5 6 6 6 11 1 17 -2 13 -5z m213 -64
c-17 -32 -22 -19 -7 19 7 20 13 27 15 18 2 -9 -2 -26 -8 -37z m-623 34 c-3 -3
-12 -4 -19 -1 -8 3 -5 6 6 6 11 1 17 -2 13 -5z m-117 -14 c0 -8 -46 -15 -72
-11 -5 0 -8 -4 -8 -11 0 -19 -31 -48 -52 -48 -25 0 -23 10 11 48 25 27 37 32
75 32 25 0 46 -4 46 -10z m730 -58 c0 -5 -7 -17 -15 -28 -14 -18 -14 -17 -4 9
12 27 19 34 19 19z m-320 -162 c0 -5 -6 -10 -14 -10 -8 0 -18 5 -21 10 -3 6 3
10 14 10 12 0 21 -4 21 -10z m105 1 c3 -5 2 -12 -2 -14 -13 -7 -83 5 -83 14 0
12 77 12 85 0z m-326 -47 c2 -2 -7 -4 -22 -4 -14 0 -29 5 -32 10 -6 10 42 4
54 -6z m287 -10 c18 -2 34 -12 38 -22 3 -9 11 -24 17 -33 10 -14 8 -29 -9 -79
-11 -34 -18 -68 -15 -76 12 -32 -65 -84 -124 -84 -27 0 -35 5 -43 26 -6 14 -7
36 -4 49 3 12 1 26 -5 29 -6 4 -11 12 -11 17 0 6 4 8 9 5 5 -4 7 3 4 14 -3 12
0 20 7 20 8 0 9 10 5 30 -5 23 -3 30 9 30 19 0 18 -3 7 38 -8 25 -7 32 5 32 8
0 14 4 14 8 0 8 26 7 96 -4z m-419 -13 c15 -23 0 -31 -55 -30 l-37 1 33 14
c17 8 32 19 32 24 0 16 14 11 27 -9z m-362 -21 c-11 -5 -36 -9 -55 -9 -28 0
-31 2 -15 9 11 5 36 9 55 9 28 0 31 -2 15 -9z m175 -68 c-13 -9 -37 -24 -53
-33 -19 -10 -26 -19 -18 -23 18 -11 13 -26 -8 -26 -50 0 -28 39 44 79 54 29
74 31 35 3z m440 4 c0 -3 -4 -8 -10 -11 -5 -3 -10 -1 -10 4 0 6 5 11 10 11 6
0 10 -2 10 -4z m-796 -66 c14 -5 26 -14 26 -20 0 -6 -9 -6 -27 1 -14 5 -35 8
-46 7 -11 -2 -22 3 -24 10 -6 15 35 16 71 2z m656 6 c0 -3 -4 -8 -10 -11 -5
-3 -10 -1 -10 4 0 6 5 11 10 11 6 0 10 -2 10 -4z m-432 -22 c16 -3 44 -19 62
-36 35 -31 52 -30 31 3 -20 33 -5 34 50 6 28 -15 56 -27 62 -27 15 0 37 -46
37 -76 0 -22 -13 -37 -41 -47 -23 -8 -59 28 -59 58 0 28 3 30 29 13 23 -14 53
-4 45 17 -7 17 -44 21 -44 4 0 -8 -5 -8 -15 1 -8 7 -24 10 -36 7 -13 -4 -49 9
-97 35 -43 22 -79 42 -81 44 -6 6 22 5 57 -2z m467 -17 c-2 -7 -6 -25 -9 -40
-4 -15 -11 -25 -16 -22 -11 7 -14 68 -4 78 10 9 33 -4 29 -16z m-195 -44 c0
-21 -14 -15 -26 11 -11 23 -10 24 7 13 11 -7 19 -17 19 -24z m-775 -3 c3 -5 1
-10 -4 -10 -6 0 -11 5 -11 10 0 6 2 10 4 10 3 0 8 -4 11 -10z m146 -31 c39
-13 66 -35 56 -45 -9 -10 -147 38 -141 48 7 11 45 10 85 -3z m1059 -54 c16
-19 7 -31 -30 -38 -33 -7 -42 -37 -11 -37 11 0 23 -4 26 -10 5 -8 -15 -13 -41
-9 -4 0 -10 -5 -14 -11 -9 -15 -30 -4 -30 16 0 8 -7 14 -15 14 -29 0 -14 19
18 22 26 2 32 7 32 26 1 37 42 55 65 27z m-1283 -30 c33 -14 36 -18 20 -26 -9
-6 -21 -8 -26 -4 -5 3 -13 0 -16 -6 -4 -6 -18 -8 -30 -5 -13 3 -26 2 -29 -3
-7 -10 57 -22 139 -26 81 -3 135 -15 135 -29 0 -6 -24 -20 -52 -31 -41 -16
-53 -26 -53 -43 0 -12 -6 -27 -13 -34 -8 -8 -9 -15 -1 -25 9 -9 8 -13 0 -13
-23 0 -51 21 -51 38 -1 15 -2 15 -15 -2 -12 -16 -12 -22 -2 -28 8 -5 5 -8 -10
-8 -12 0 -24 6 -26 13 -3 6 -6 3 -6 -9 -1 -11 -7 -21 -13 -21 -7 0 -34 -3 -59
-7 -57 -9 -59 -6 -59 116 0 80 2 89 15 78 25 -21 43 4 19 27 -17 17 -17 18 19
21 41 4 51 22 12 22 -14 0 -25 4 -25 8 0 15 88 13 127 -3z m1353 5 c-8 -5 -24
-10 -35 -10 -17 0 -17 2 -5 10 8 5 24 10 35 10 17 0 17 -2 5 -10z m-373 -24
c13 -13 -4 -14 -50 -2 -26 7 -45 15 -42 18 7 6 83 -7 92 -16z m751 -4 c36 -31
41 -52 14 -52 -18 0 -62 49 -62 70 0 16 13 12 48 -18z m-898 -2 c0 -5 -25 -10
-55 -10 -30 0 -55 5 -55 10 0 6 25 10 55 10 30 0 55 -4 55 -10z m-490 -30 c12
-8 9 -10 -12 -10 -16 0 -28 5 -28 10 0 13 20 13 40 0z m518 -22 c-5 -14 -122
-33 -145 -24 -19 8 -16 24 5 29 9 3 46 5 80 6 47 1 63 -2 60 -11z m292 -7 c0
-6 -4 -13 -10 -16 -16 -10 -12 -35 6 -35 11 0 14 -5 10 -16 -5 -14 -4 -15 9
-4 8 7 27 10 42 7 85 -18 94 -19 108 -7 13 11 14 10 9 -4 -4 -10 -19 -16 -43
-17 -20 -1 -49 -4 -66 -8 l-30 -7 43 -27 c40 -26 53 -49 33 -61 -5 -3 -21 4
-35 15 -18 14 -34 19 -51 15 -14 -4 -25 -2 -25 4 0 5 4 10 10 10 5 0 7 7 4 15
-4 8 -12 15 -20 15 -8 0 -14 5 -14 12 0 6 -7 19 -15 28 -14 16 -14 21 1 54 17
34 34 48 34 27z m225 -21 c3 -5 -1 -10 -9 -10 -9 0 -16 5 -16 10 0 6 4 10 9
10 6 0 13 -4 16 -10z m-910 -37 c4 -19 2 -29 -9 -35 -10 -6 -16 -23 -16 -46
-1 -35 -2 -36 -15 -18 -18 24 -19 66 -3 101 15 33 34 32 43 -2z m283 -8 c16
-15 -47 -23 -93 -11 -11 2 -22 5 -24 5 -2 1 2 7 8 15 9 10 22 11 58 5 25 -5
49 -11 51 -14z m-234 -21 c3 -8 2 -12 -4 -9 -6 3 -10 10 -10 16 0 14 7 11 14
-7z m-117 -30 c-3 -3 -12 -4 -19 -1 -8 3 -5 6 6 6 11 1 17 -2 13 -5z m111 -34
c-3 -35 -13 -38 -28 -11 -8 16 -6 22 7 30 10 6 19 11 21 11 1 0 1 -13 0 -30z
m872 20 c0 -5 -2 -10 -4 -10 -3 0 -8 5 -11 10 -3 6 -1 10 4 10 6 0 11 -4 11
-10z m-732 -27 c-8 -10 -27 -39 -41 -64 -29 -52 -114 -139 -135 -139 -10 0
-12 8 -7 30 6 29 6 30 -20 20 -27 -10 -101 -8 -112 4 -3 3 -11 6 -17 6 -6 0
-6 -4 1 -11 6 -6 8 -19 6 -29 -4 -15 -11 -18 -34 -13 -17 3 -29 1 -29 -5 0
-17 15 -22 52 -16 29 5 35 10 31 25 -6 22 -4 23 31 9 44 -16 29 -55 -32 -80
-18 -8 -22 -15 -16 -33 3 -12 14 -29 23 -38 15 -14 20 -14 36 -3 28 21 37 17
31 -14 -5 -20 -2 -31 14 -42 11 -8 20 -18 20 -22 0 -17 -55 6 -81 33 -15 15
-45 33 -67 38 -22 6 -51 20 -66 32 l-26 20 0 -20 c0 -14 -6 -21 -20 -21 -22 0
-25 12 -10 40 15 28 -43 84 -79 75 -14 -4 -27 -11 -29 -16 -7 -18 -32 -8 -33
14 0 12 -3 16 -6 10 -7 -19 -30 -16 -36 6 -3 13 -17 20 -48 24 -24 3 -45 4
-48 2 -12 -12 15 -39 56 -56 27 -11 58 -25 70 -31 12 -6 31 -8 42 -5 24 6 40
-11 21 -23 -10 -6 -10 -15 -2 -37 l10 -30 -49 8 c-32 5 -64 20 -94 43 -29 21
-53 32 -62 29 -12 -5 -15 -2 -11 9 6 15 -11 81 -25 94 -4 4 -7 16 -7 26 0 18
9 22 42 19 9 -1 19 3 23 9 3 6 11 8 16 4 5 -3 7 -10 4 -15 -4 -5 -1 -9 4 -9 6
0 11 4 11 10 0 5 7 7 15 4 9 -4 15 0 15 10 0 21 16 21 24 0 4 -11 13 -14 29
-10 12 4 33 8 47 10 14 2 40 7 58 11 27 6 32 5 32 -11 1 -20 22 -54 35 -54 4
0 14 8 21 17 7 10 16 15 20 11 4 -4 1 -14 -6 -23 -13 -16 -8 -18 28 -9 12 4
22 12 22 19 0 14 -75 39 -90 30 -6 -3 -10 -2 -10 3 0 11 50 21 147 29 61 4 74
3 79 -11 3 -9 17 -16 31 -16 31 0 65 18 58 31 -4 5 -11 7 -16 4 -5 -4 -9 1 -9
10 0 9 4 14 8 11 5 -3 15 6 22 19 17 31 30 32 30 3 0 -21 1 -21 17 -5 13 13
15 20 5 29 -21 21 -13 31 21 25 19 -3 40 -1 48 4 23 15 33 10 17 -8z m45 -5
c-13 -12 -25 -19 -29 -15 -10 10 16 37 34 37 13 0 12 -4 -5 -22z m-400 -3 c22
-4 37 -3 42 5 5 8 10 8 21 -1 18 -15 18 -30 -1 -23 -8 4 -17 -1 -20 -9 -5 -13
-12 -13 -58 1 -29 8 -54 16 -56 18 -8 7 12 25 24 20 8 -3 29 -8 48 -11z m521
3 c23 0 34 -2 26 -5 -8 -3 -22 -12 -31 -20 -14 -12 -17 -12 -23 3 -4 12 -15
15 -36 12 -17 -3 -30 -1 -30 3 0 9 32 17 44 11 5 -3 28 -5 50 -4z m-634 -38
c0 -5 -8 -10 -17 -10 -15 0 -16 2 -3 10 19 12 20 12 20 0z m600 -4 c7 -10 8
-16 0 -21 -5 -3 -10 -13 -10 -21 0 -13 8 -14 39 -9 23 4 42 2 45 -4 7 -11 -10
-17 -79 -27 -27 -4 -62 -16 -77 -27 -18 -13 -34 -18 -52 -13 -33 8 -34 26 -2
26 16 0 27 7 31 21 6 16 9 18 15 8 7 -11 13 -11 37 0 28 13 28 13 6 22 -13 5
-23 13 -23 18 0 5 -2 16 -5 24 -8 19 59 21 75 3z m506 -23 c-11 -11 -19 6 -11
24 8 17 8 17 12 0 3 -10 2 -21 -1 -24z m84 18 c0 -17 -18 -21 -24 -6 -3 9 0
15 9 15 8 0 15 -4 15 -9z m-1485 -11 c31 -12 24 -30 -11 -30 -17 0 -24 5 -24
20 0 23 0 23 35 10z m237 -2 c-24 -24 -192 -31 -192 -7 0 11 34 16 125 18 60
1 76 -2 67 -11z m98 2 c0 -5 -5 -10 -11 -10 -5 0 -7 5 -4 10 3 6 8 10 11 10 2
0 4 -4 4 -10z m454 -11 c4 6 13 11 19 11 7 -1 2 -9 -10 -19 -13 -11 -23 -24
-23 -30 0 -17 -17 -13 -24 5 -3 8 -10 12 -16 9 -5 -3 -10 0 -10 8 0 10 7 13
20 10 13 -3 20 0 20 8 0 12 2 12 9 0 6 -9 11 -10 15 -2z m216 7 c0 -3 -4 -8
-10 -11 -5 -3 -10 -1 -10 4 0 6 5 11 10 11 6 0 10 -2 10 -4z m374 -31 c-4 -9
0 -15 10 -15 9 0 16 6 16 13 0 9 2 9 8 0 4 -6 19 -16 34 -22 18 -7 28 -20 33
-42 9 -38 25 -57 43 -51 6 2 19 -4 28 -12 8 -9 11 -16 5 -16 -5 0 -13 5 -16
10 -3 6 -17 7 -30 4 -12 -3 -26 -1 -29 5 -5 7 -13 7 -26 -1 -29 -19 -36 -1
-10 27 13 14 20 31 17 39 -7 18 -21 18 -119 7 -38 -4 -68 -4 -68 1 0 13 44 32
67 29 17 -2 20 2 16 18 -4 15 -1 21 11 21 10 0 13 -6 10 -15z m-264 -24 c16
-31 12 -37 -10 -13 -22 23 -25 32 -10 32 5 0 14 -9 20 -19z m705 10 c3 -5 1
-12 -5 -16 -5 -3 -10 1 -10 9 0 18 6 21 15 7z m-1097 -51 c30 -40 28 -43 -18
-19 -33 17 -38 24 -29 35 16 20 22 18 47 -16z m320 -18 c2 -7 -7 -12 -23 -12
-24 0 -26 2 -15 15 14 17 31 16 38 -3z m402 -2 c0 -5 -5 -10 -12 -10 -6 0 -19
-6 -27 -14 -11 -10 -28 -12 -56 -7 l-40 7 35 8 c19 5 38 9 42 10 3 1 10 4 14
9 11 11 44 9 44 -3z m-727 -17 c11 -6 9 -43 -3 -43 -5 0 -10 5 -10 10 0 6 -9
10 -20 10 -10 0 -24 9 -31 21 -10 20 -9 21 23 14 18 -4 36 -9 41 -12z m209 -7
c14 -4 15 -11 8 -35 -4 -16 -6 -32 -3 -34 2 -3 -1 -15 -7 -27 -9 -17 -8 -25 5
-40 15 -16 14 -18 -16 -24 -34 -6 -189 39 -189 56 0 5 4 7 9 3 5 -3 21 0 35 6
25 12 33 11 125 -18 13 -4 12 -2 -3 11 -19 15 -16 46 4 46 5 0 10 9 10 20 0
18 -5 19 -42 15 -46 -5 -75 6 -63 24 5 9 10 9 21 0 11 -9 19 -8 36 3 14 9 29
12 38 7 8 -4 23 -10 32 -13z m268 14 c0 -5 -4 -10 -10 -10 -5 0 -10 5 -10 10
0 6 5 10 10 10 6 0 10 -4 10 -10z m-415 -9 c3 -5 1 -12 -5 -16 -5 -3 -10 1
-10 9 0 18 6 21 15 7z m298 -16 c4 -8 2 -17 -3 -20 -6 -4 -10 3 -10 14 0 25 6
27 13 6z m-63 -32 c0 -32 -12 -23 -16 12 -1 14 2 23 7 20 5 -4 9 -18 9 -32z
m-1143 -6 c2 -3 2 -50 1 -107 l-3 -102 -39 98 c-21 54 -46 104 -55 110 -12 10
-5 11 38 8 30 -2 56 -5 58 -7z m1253 -17 c0 10 3 11 8 4 4 -6 17 -15 30 -19
33 -10 17 -20 -32 -20 -41 0 -42 1 -43 35 l-1 34 19 -24 c12 -17 19 -20 19
-10z m248 12 c2 -7 -3 -12 -12 -12 -9 0 -16 7 -16 16 0 17 22 14 28 -4z m-363
-80 c-5 -13 -10 -10 -21 17 -8 18 -11 38 -7 43 9 16 36 -41 28 -60z m-304 31
c-8 -15 -10 -15 -11 -2 0 17 10 32 18 25 2 -3 -1 -13 -7 -23z m342 13 c6 -14
0 -26 -14 -26 -3 0 -9 9 -12 20 -6 23 18 28 26 6z m-408 -36 c17 -7 16 -9 -10
-9 -17 -1 -40 -8 -52 -16 -15 -10 -24 -12 -28 -4 -4 6 2 13 14 16 12 3 21 9
21 14 0 11 28 10 55 -1z m345 0 c0 -5 -4 -10 -10 -10 -5 0 -10 5 -10 10 0 6 5
10 10 10 6 0 10 -4 10 -10z m-656 -56 c19 -19 21 -54 3 -54 -8 0 -19 11 -25
25 -6 14 -16 25 -22 25 -5 0 -10 5 -10 10 0 16 37 12 54 -6z m271 -5 c6 -19 0
-38 -9 -28 -10 12 -16 49 -7 49 5 0 13 -9 16 -21z m65 -4 c-15 -17 -40 -20
-40 -4 0 6 7 9 15 6 8 -4 17 -2 20 3 4 6 9 10 12 10 3 0 0 -7 -7 -15z m-170
-35 c0 -5 -13 -10 -30 -10 -16 0 -30 4 -30 8 0 4 14 9 30 10 17 1 30 -2 30 -8z
m-406 -31 c-3 -5 -23 -18 -44 -29 -46 -23 -67 -8 -29 21 35 27 89 33 73 8z
m1410 -61 c9 -74 18 -218 13 -218 -43 0 -119 27 -165 59 -31 21 -83 55 -116
76 -32 20 -55 40 -50 45 5 4 70 22 144 40 74 17 140 33 145 35 21 7 24 4 29
-37z m-349 -68 c10 -12 35 -30 54 -42 88 -51 181 -114 181 -120 0 -15 -41 -8
-46 7 -5 13 -59 34 -104 40 -8 2 -29 5 -47 9 -17 3 -60 7 -96 8 l-65 2 -6 35
c-3 20 -6 41 -6 46 -1 9 66 32 101 34 9 1 24 -8 34 -19z m-185 -29 c0 -5 3
-22 6 -38 5 -27 3 -31 -22 -37 -16 -4 -32 -12 -35 -18 -4 -6 -16 -7 -28 -3
-21 6 -20 7 8 36 16 16 33 38 36 49 6 20 35 29 35 11z m-960 -39 c0 -19 -34
-23 -61 -7 -13 9 3 16 54 24 4 0 7 -7 7 -17z m493 -106 c7 -18 -1 -26 -25 -26
-10 0 -18 -5 -18 -11 0 -5 -4 -7 -10 -4 -19 12 -11 43 13 48 12 2 25 5 28 6 4
0 9 -5 12 -13z m-288 -328 c-11 -6 -25 -17 -31 -24 -9 -11 -15 -10 -35 4 l-24
17 35 6 c19 4 44 7 55 7 l20 1 -20 -11z"/>
<path d="M2675 2740 c3 -5 11 -10 16 -10 6 0 7 5 4 10 -3 6 -11 10 -16 10 -6
0 -7 -4 -4 -10z"/>
<path d="M2178 2453 c6 -2 18 -2 25 0 6 3 1 5 -13 5 -14 0 -19 -2 -12 -5z"/>
<path d="M1347 1328 c-9 -25 29 -51 78 -54 25 -2 47 1 50 6 7 11 -51 24 -66
14 -6 -3 -21 6 -33 21 -18 23 -24 25 -29 13z"/>
<path d="M1410 1251 c0 -18 18 -21 30 -6 10 13 9 15 -9 15 -11 0 -21 -4 -21
-9z"/>
<path d="M1201 1066 c-10 -11 -9 -16 5 -24 19 -10 54 -5 54 9 0 7 -32 29 -43
29 -3 0 -10 -6 -16 -14z"/>
</g>
</svg>
