<?xml version="1.0" standalone="no"?>
<!DOCTYPE svg PUBLIC "-//W3C//DTD SVG 20010904//EN"
 "http://www.w3.org/TR/2001/REC-SVG-20010904/DTD/svg10.dtd">
<svg version="1.0" xmlns="http://www.w3.org/2000/svg"
 width="160.000000pt" height="160.000000pt" viewBox="0 0 160.000000 160.000000"
 preserveAspectRatio="xMidYMid meet">
<metadata>
Created by potrace 1.14, written by Peter Selinger 2001-2017
</metadata>
<g transform="translate(0.000000,160.000000) scale(0.100000,-0.100000)"
fill="#000000" stroke="none">
<path d="M96 1524 c-14 -14 -16 -91 -14 -722 l3 -707 2 708 3 707 710 0 710 0
3 -707 2 -708 3 707 c2 631 0 708 -14 722 -14 14 -91 16 -704 16 -613 0 -690
-2 -704 -16z"/>
<path d="M170 800 l0 -630 630 0 630 0 0 630 0 630 -630 0 -630 0 0 -630z
m896 234 c19 -3 79 -3 134 0 55 4 100 5 100 2 0 -2 -37 -33 -82 -69 -46 -36
-94 -76 -106 -90 l-24 -25 40 -114 c22 -62 43 -122 48 -133 7 -19 7 -19 -13
-5 -12 8 -56 39 -99 69 -42 30 -86 55 -98 55 -13 1 -43 -19 -81 -54 -33 -31
-87 -74 -120 -96 -61 -41 -151 -83 -140 -65 7 13 -16 51 -31 51 -6 0 26 37 70
83 78 78 106 121 120 178 5 23 -4 33 -105 109 -60 46 -113 88 -116 93 -4 6 47
7 140 2 l146 -7 10 38 c11 43 45 182 56 229 6 27 12 16 62 -107 54 -133 57
-138 89 -144z"/>
<path d="M448 83 c193 -2 511 -2 705 0 193 1 35 2 -353 2 -388 0 -546 -1 -352
-2z"/>
</g>
</svg>
