<?xml version="1.0" standalone="no"?>
<!DOCTYPE svg PUBLIC "-//W3C//DTD SVG 20010904//EN"
 "http://www.w3.org/TR/2001/REC-SVG-20010904/DTD/svg10.dtd">
<svg version="1.0" xmlns="http://www.w3.org/2000/svg"
 width="202.000000pt" height="202.000000pt" viewBox="0 0 202.000000 202.000000"
 preserveAspectRatio="xMidYMid meet">
<metadata>
Created by potrace 1.14, written by Peter Selinger 2001-2017
</metadata>
<g transform="translate(0.000000,202.000000) scale(0.100000,-0.100000)"
fill="#000000" stroke="none">
<path d="M421 1850 c-1 -19 -39 -23 -61 -7 -13 10 -13 10 -2 -4 10 -14 10 -18
-2 -22 -8 -3 -17 -1 -20 6 -2 7 -5 4 -5 -5 -1 -10 -8 -18 -16 -18 -8 0 -24 -9
-35 -20 -11 -11 -22 -15 -25 -10 -4 6 -12 10 -18 10 -9 0 -9 -2 0 -8 8 -5 -3
-22 -36 -55 -26 -26 -51 -44 -55 -40 -4 4 -4 -1 0 -12 6 -15 4 -17 -10 -12
-10 4 -15 3 -11 -4 4 -5 1 -16 -5 -24 -7 -8 -9 -15 -4 -15 5 0 2 -5 -6 -10 -8
-5 -15 -13 -15 -17 -1 -4 -6 -17 -12 -28 -6 -11 -16 -46 -23 -77 -7 -32 -16
-55 -20 -53 -4 2 -7 -2 -7 -10 0 -8 4 -12 8 -10 4 3 6 -6 5 -20 0 -14 -5 -25
-11 -25 -5 0 -4 -4 4 -9 13 -8 13 -12 0 -27 -12 -16 -12 -17 1 -9 13 7 13 6 2
-7 -7 -9 -9 -19 -4 -22 15 -9 20 -54 8 -67 -8 -9 -8 -10 1 -5 7 4 14 -6 18
-26 4 -18 13 -53 22 -78 19 -57 23 -69 22 -77 -1 -3 7 -10 16 -15 10 -6 14
-16 9 -30 -3 -11 -2 -18 3 -15 5 3 15 -3 22 -15 10 -16 10 -19 -1 -13 -7 3 -6
1 3 -7 8 -7 24 -29 35 -48 10 -19 24 -38 29 -42 6 -4 7 -8 3 -8 -4 0 3 -12 16
-26 52 -58 57 -66 52 -80 -3 -9 -1 -12 4 -9 6 3 10 1 10 -5 0 -6 4 -9 8 -6 5
3 17 -9 27 -27 10 -18 27 -38 37 -45 10 -7 15 -18 12 -24 -4 -7 -2 -8 4 -4 13
8 35 -28 24 -39 -4 -5 -2 -5 5 -1 13 7 55 -32 47 -45 -3 -5 3 -6 12 -2 14 5
16 3 11 -11 -4 -10 -3 -15 3 -11 6 3 10 1 10 -5 0 -6 5 -8 10 -5 6 3 10 -2 10
-11 0 -10 3 -15 6 -11 9 9 65 -46 60 -59 -3 -8 1 -11 9 -8 16 7 56 -26 48 -39
-3 -6 -1 -7 5 -3 7 4 12 2 12 -3 0 -6 3 -10 8 -10 25 4 33 -3 27 -23 -4 -15
-3 -19 3 -10 9 14 42 6 42 -10 0 -5 6 -6 13 -2 9 6 9 4 -1 -8 -10 -13 -10 -18
-1 -24 8 -5 9 -3 4 5 -5 9 -2 12 11 9 11 -2 18 -9 17 -16 -2 -7 4 -9 14 -5 11
4 14 3 9 -5 -5 -8 -1 -10 10 -5 12 4 15 3 10 -5 -5 -8 -1 -10 10 -5 13 5 16 2
11 -9 -4 -12 -1 -14 14 -11 11 3 19 0 19 -6 0 -7 4 -10 9 -6 5 3 16 -2 24 -10
9 -8 21 -15 27 -15 6 0 8 -5 4 -11 -4 -8 0 -9 15 -4 13 4 21 2 21 -5 0 -6 5
-8 10 -5 6 4 17 1 25 -5 11 -9 15 -9 15 -1 0 6 5 11 11 11 6 0 23 9 39 20 15
11 30 17 34 13 3 -3 6 -1 6 6 0 8 8 10 23 6 17 -5 19 -4 7 4 -13 10 -8 15 13
12 4 0 7 4 7 10 0 8 5 7 15 -1 13 -11 14 -10 8 5 -5 14 -3 17 10 12 12 -4 14
-2 10 10 -4 11 -2 14 5 9 7 -4 12 -2 12 3 0 6 5 11 11 11 6 0 17 7 26 16 9 8
22 13 29 10 8 -3 11 0 7 10 -3 8 1 14 11 14 9 0 16 5 16 11 0 5 13 15 30 20
16 6 28 15 25 19 -7 11 24 22 37 13 6 -3 8 -1 5 4 -9 14 16 34 34 30 8 -2 11
-2 7 0 -14 8 -8 23 8 23 8 0 13 4 10 9 -6 9 8 18 29 19 5 0 12 10 17 21 4 12
14 21 23 21 8 0 15 7 15 16 0 14 3 14 15 4 13 -11 14 -10 10 1 -6 15 55 79 74
79 6 0 10 3 9 8 -5 13 74 102 84 96 6 -4 9 -1 6 7 -5 15 41 71 52 64 4 -3 8 1
7 8 -1 30 4 47 14 47 5 0 7 -6 3 -12 -5 -8 -1 -8 12 2 29 22 30 24 12 17 -10
-4 -18 -4 -18 -2 0 12 24 55 32 55 4 0 7 3 6 8 -4 12 24 72 34 72 5 0 7 4 4 9
-4 5 -3 16 0 25 5 14 9 14 23 4 13 -10 14 -10 4 2 -14 16 -18 54 -4 46 4 -3 6
7 3 22 -4 27 -4 27 13 7 16 -19 16 -19 1 7 -14 24 -14 27 2 33 13 5 14 8 3 14
-10 7 -10 10 -1 16 9 6 9 9 1 15 -8 4 -5 16 11 36 12 16 15 23 7 17 -14 -11
-16 -7 -14 32 0 24 4 47 8 51 3 4 3 12 0 18 -9 13 -13 30 -17 71 -2 17 -5 31
-6 33 -7 7 -5 29 3 40 7 9 6 11 -7 6 -9 -3 -16 -2 -16 4 0 6 6 13 13 15 7 3 4
6 -6 6 -10 1 -17 7 -14 14 2 6 -3 18 -12 25 -9 8 -10 10 -3 7 11 -6 12 -3 3
13 -6 11 -16 22 -23 25 -10 3 -10 8 2 23 13 17 13 18 0 8 -12 -9 -18 -9 -28 2
-7 8 -9 14 -5 14 4 0 0 5 -9 11 -10 5 -18 17 -18 24 0 8 -6 14 -12 12 -7 -1
-12 5 -10 13 2 8 0 12 -4 8 -4 -5 -21 3 -38 15 -17 13 -46 30 -63 38 -18 8
-33 17 -33 20 0 3 -6 6 -12 7 -40 3 -86 15 -106 28 -12 8 -21 11 -20 7 3 -8
-5 -13 -23 -13 -5 0 -7 6 -3 13 6 9 4 9 -7 1 -8 -6 -25 -11 -39 -9 -14 1 -43
-4 -66 -11 -32 -9 -45 -10 -54 -1 -10 9 -11 9 -6 0 8 -14 -60 -47 -80 -39 -9
3 -11 -1 -7 -11 5 -13 2 -15 -11 -10 -10 4 -15 3 -11 -3 3 -6 -1 -10 -9 -10
-9 0 -16 -4 -16 -8 0 -4 -14 -16 -32 -27 -18 -10 -45 -32 -60 -47 -16 -16 -33
-26 -40 -22 -6 4 -8 3 -5 -3 3 -5 -11 -29 -32 -53 -33 -38 -39 -41 -52 -27
-28 32 -40 47 -35 47 13 0 -127 125 -166 148 -16 9 -28 20 -28 25 0 4 -4 5
-10 2 -5 -3 -10 2 -11 12 0 10 -3 13 -5 6 -3 -7 -12 -9 -20 -6 -7 3 -11 9 -8
14 3 5 -3 6 -12 2 -11 -4 -15 -3 -10 5 4 7 0 10 -13 7 -10 -2 -30 2 -44 10
-15 8 -58 12 -116 11 -52 0 -93 3 -95 9 -3 6 -5 3 -5 -5z"/>
<path d="M1189 1743 c-13 -16 -12 -17 4 -4 9 7 17 15 17 17 0 8 -8 3 -21 -13z"/>
<path d="M1916 962 c-3 -5 1 -9 9 -9 8 0 12 4 9 9 -3 4 -7 8 -9 8 -2 0 -6 -4
-9 -8z"/>
</g>
</svg>
