<?xml version="1.0" standalone="no"?>
<!DOCTYPE svg PUBLIC "-//W3C//DTD SVG 20010904//EN"
 "http://www.w3.org/TR/2001/REC-SVG-20010904/DTD/svg10.dtd">
<svg version="1.0" xmlns="http://www.w3.org/2000/svg"
 width="512.000000pt" height="512.000000pt" viewBox="0 0 512.000000 512.000000"
 preserveAspectRatio="xMidYMid meet">
<metadata>
Created by potrace 1.14, written by Peter Selinger 2001-2017
</metadata>
<g transform="translate(0.000000,512.000000) scale(0.100000,-0.100000)"
fill="#000000" stroke="none">
<path d="M3429 4515 c-1 -3 -2 -11 -3 -17 0 -7 -8 -13 -16 -13 -8 -1 -14 -6
-12 -13 1 -7 -3 -12 -9 -12 -5 0 -7 -4 -4 -10 4 -6 -1 -7 -11 -3 -12 4 -15 3
-10 -5 4 -7 1 -12 -8 -12 -9 0 -16 -5 -16 -11 0 -5 6 -7 13 -3 7 4 9 3 4 -2
-5 -5 -14 -9 -20 -9 -7 -1 -11 -7 -9 -15 3 -11 0 -11 -12 -1 -13 11 -15 10
-11 -8 3 -15 0 -18 -12 -14 -11 4 -14 2 -9 -5 4 -7 2 -12 -4 -12 -6 0 -9 -4
-5 -9 3 -6 -3 -8 -14 -6 -13 2 -18 -1 -15 -9 5 -13 -18 -38 -32 -35 -20 3 -26
-2 -15 -15 9 -10 7 -17 -6 -27 -11 -9 -14 -10 -9 -1 4 6 3 12 -3 12 -5 0 -14
-12 -19 -27 -6 -16 -11 -22 -11 -15 -1 6 -5 12 -11 12 -5 0 -7 -7 -4 -15 4 -8
1 -15 -6 -15 -6 0 -8 -5 -4 -12 6 -9 3 -9 -9 0 -14 12 -16 11 -12 -7 3 -15 0
-18 -12 -14 -11 4 -14 2 -9 -5 4 -7 1 -12 -8 -12 -8 0 -18 -5 -22 -12 -5 -7
-3 -8 7 -3 12 8 12 6 0 -9 -8 -9 -20 -15 -27 -12 -8 3 -13 2 -13 -2 1 -4 1
-16 0 -27 -1 -15 -3 -17 -10 -7 -6 11 -10 10 -16 -5 -5 -10 -7 -22 -6 -27 1
-5 -5 -3 -14 4 -13 11 -15 10 -10 -2 4 -10 -1 -17 -14 -21 -15 -4 -19 -10 -14
-23 4 -10 2 -15 -3 -11 -5 3 -20 -8 -33 -24 -13 -16 -27 -26 -33 -23 -5 3 -12
-3 -15 -15 -3 -11 -10 -18 -16 -14 -6 4 -8 0 -4 -11 4 -9 3 -14 -2 -11 -5 3
-12 1 -16 -5 -4 -6 -12 -7 -18 -3 -8 4 -7 1 1 -9 14 -18 6 -27 -20 -23 -10 2
-15 -2 -12 -9 3 -7 -3 -19 -12 -27 -16 -12 -17 -12 -9 1 4 8 -2 5 -14 -7 -11
-12 -21 -27 -21 -33 0 -6 -5 -8 -12 -4 -8 5 -9 2 -5 -10 4 -9 3 -15 -2 -12 -4
3 -17 -2 -27 -10 -10 -9 -12 -12 -4 -8 13 7 13 6 1 -10 -8 -9 -20 -15 -28 -12
-8 3 -12 2 -9 -3 3 -4 -2 -17 -10 -27 -9 -10 -13 -12 -9 -4 4 8 0 6 -9 -4 -8
-10 -13 -23 -10 -27 3 -5 -3 -6 -12 -2 -11 4 -15 2 -11 -4 4 -6 -1 -17 -10
-24 -14 -12 -16 -12 -9 1 4 8 1 6 -8 -4 -8 -10 -12 -24 -9 -30 4 -6 -1 -5 -11
3 -9 8 -16 10 -15 5 1 -5 1 -18 0 -29 -1 -17 -3 -18 -11 -5 -8 13 -10 12 -10
-3 0 -11 -4 -15 -12 -11 -8 5 -9 2 -4 -11 5 -15 4 -16 -9 -5 -13 11 -14 10
-10 -2 7 -19 -20 -42 -37 -32 -7 4 -10 4 -6 -1 4 -4 0 -14 -10 -22 -11 -10
-12 -12 -2 -8 8 4 5 -3 -8 -14 -13 -11 -22 -23 -22 -26 1 -4 -2 -10 -6 -13 -4
-4 -4 -1 1 7 5 9 3 12 -6 9 -8 -3 -13 -11 -12 -17 2 -6 -2 -11 -8 -11 -5 0 -7
-6 -3 -12 5 -8 0 -7 -11 2 -10 8 -16 10 -12 3 10 -15 -30 -56 -45 -47 -6 4 -9
1 -6 -7 3 -8 -5 -19 -16 -25 -12 -6 -20 -16 -19 -22 3 -14 -66 -74 -77 -67 -6
4 -7 -2 -3 -11 5 -13 3 -15 -7 -9 -10 6 -12 4 -6 -10 5 -15 4 -16 -8 -6 -13
11 -15 9 -11 -8 2 -11 -1 -24 -7 -27 -7 -4 -8 -2 -4 4 4 7 2 12 -3 12 -6 0
-11 -7 -11 -16 0 -8 -5 -12 -11 -9 -6 4 -13 -3 -16 -15 -3 -13 -11 -19 -20
-16 -8 3 -11 1 -8 -4 8 -13 -42 -63 -55 -55 -5 3 -7 0 -4 -8 7 -18 -21 -41
-38 -31 -10 6 -10 4 0 -9 12 -14 11 -16 -7 -12 -12 2 -19 0 -16 -5 3 -4 2 -15
-1 -24 -6 -15 -8 -15 -21 1 -8 10 -11 12 -8 5 4 -8 -1 -20 -11 -28 -11 -9 -12
-12 -4 -8 13 7 13 6 1 -10 -8 -9 -20 -15 -27 -12 -8 3 -13 2 -13 -2 3 -21 -2
-32 -13 -26 -8 5 -9 2 -4 -12 4 -10 4 -15 0 -11 -4 4 -14 -2 -22 -14 -8 -11
-20 -18 -27 -15 -9 3 -12 -2 -10 -15 2 -11 0 -17 -6 -14 -5 4 -9 0 -9 -7 0
-10 -3 -9 -11 2 -9 12 -10 11 -6 -8 3 -12 2 -20 -3 -17 -11 7 -61 -35 -55 -46
4 -5 -1 -9 -9 -9 -9 0 -16 -5 -16 -11 0 -5 6 -7 13 -3 7 4 9 3 4 -2 -5 -5 -13
-10 -18 -10 -5 -1 -14 -2 -19 -3 -6 0 -9 -7 -8 -13 2 -7 -3 -12 -10 -10 -8 1
-16 -7 -19 -18 -3 -12 -11 -19 -19 -16 -8 3 -11 -2 -9 -14 2 -11 1 -19 -3 -19
-4 1 -14 1 -22 0 -13 -1 -13 -2 0 -11 13 -8 12 -10 -5 -11 -11 -1 -24 -1 -29
0 -5 1 -3 -6 5 -15 9 -12 9 -15 2 -10 -7 4 -13 2 -13 -3 0 -6 -3 -10 -7 -9
-12 3 -53 -25 -53 -36 0 -5 8 -2 18 7 10 10 23 17 28 17 5 0 -13 -16 -40 -35
-27 -19 -45 -35 -40 -35 5 -1 -2 -9 -15 -20 -12 -11 -28 -17 -35 -13 -6 4 -5
-1 2 -10 12 -14 11 -16 -7 -12 -15 3 -21 -1 -21 -14 0 -24 -46 -67 -53 -49 -3
7 -6 3 -6 -9 -1 -14 -7 -23 -17 -23 -8 0 -12 -4 -9 -10 3 -5 -1 -10 -9 -10 -9
0 -15 -5 -14 -12 2 -7 -3 -12 -11 -13 -8 0 -16 -6 -19 -14 -3 -9 0 -11 8 -6 9
6 11 4 6 -4 -5 -7 -10 -10 -13 -7 -3 2 -17 -9 -31 -25 -15 -17 -36 -31 -47
-33 -12 -2 -19 -10 -17 -19 2 -11 -3 -15 -16 -12 -11 2 -19 -2 -19 -10 0 -7 7
-11 16 -8 14 4 14 4 1 -6 -8 -6 -24 -8 -35 -5 l-20 6 20 -16 c16 -13 17 -15 2
-10 -10 4 -17 1 -17 -6 0 -6 -4 -9 -8 -6 -5 3 -8 -7 -6 -22 3 -38 3 -39 14
-22 5 8 10 10 10 4 0 -6 14 -11 30 -12 21 0 28 3 23 11 -5 8 -2 8 9 0 16 -13
65 -12 89 2 8 5 5 -2 -5 -14 l-20 -22 29 15 c21 11 32 12 42 4 10 -8 13 -6 13
8 1 18 1 18 11 1 7 -12 15 -15 27 -8 9 4 22 6 29 4 6 -2 14 1 18 7 5 8 11 8
21 -1 8 -6 17 -9 20 -6 3 3 19 1 35 -3 16 -5 29 -5 29 0 0 5 10 7 23 4 44 -11
72 -10 94 3 14 8 24 9 28 3 3 -5 22 -8 41 -5 20 2 32 0 29 -5 -3 -6 1 -7 9 -4
9 3 16 11 17 18 0 6 4 2 9 -9 5 -11 9 -15 9 -8 1 6 10 9 21 6 13 -3 20 0 20 8
0 12 2 12 9 0 5 -7 15 -11 22 -9 8 3 24 1 37 -3 12 -5 22 -5 22 0 0 9 37 8 46
-2 4 -4 13 1 21 11 14 16 14 16 9 0 -4 -14 -1 -16 17 -9 12 5 31 5 42 1 11 -4
29 -4 40 -1 11 4 49 6 85 5 50 0 64 -4 62 -15 -2 -11 0 -11 10 1 13 15 61 19
92 7 9 -4 16 -3 16 1 0 4 28 6 63 6 47 -1 61 -5 59 -15 -1 -8 7 -3 19 11 11
14 18 20 15 14 -4 -8 8 -12 37 -12 73 1 85 -2 90 -17 4 -8 1 -17 -5 -21 -7 -4
-8 -3 -4 4 4 7 2 12 -3 12 -6 0 -11 -9 -11 -21 0 -11 -4 -18 -9 -15 -5 4 -7
-4 -3 -16 5 -20 4 -21 -11 -10 -14 12 -16 11 -12 -6 4 -23 -8 -41 -45 -66
l-25 -18 25 7 25 7 -22 -17 c-13 -9 -23 -23 -23 -31 0 -8 -4 -14 -9 -14 -5 0
-11 -9 -14 -21 -4 -13 -10 -18 -18 -13 -7 4 -10 3 -6 -3 4 -6 -1 -19 -9 -29
-9 -10 -12 -12 -8 -4 4 9 3 12 -2 7 -9 -9 -10 -13 -13 -44 -1 -16 -3 -16 -11
-3 -8 12 -10 10 -10 -8 0 -13 -4 -21 -9 -17 -6 3 -8 -4 -6 -15 2 -11 0 -18 -6
-15 -8 6 -13 -8 -10 -28 0 -4 -5 -6 -11 -5 -7 2 -12 -2 -11 -9 2 -6 -6 -15
-17 -18 -11 -4 -20 -10 -20 -15 0 -5 8 -7 18 -3 9 3 6 -3 -8 -13 -33 -24 -40
-34 -40 -64 0 -20 -2 -22 -10 -10 -9 15 -11 14 -14 -12 -1 -7 -8 -12 -16 -10
-11 3 -11 0 1 -14 9 -12 9 -15 2 -10 -7 4 -13 3 -13 -3 0 -6 -6 -9 -12 -7 -7
1 -10 1 -5 -1 4 -3 7 -11 7 -19 0 -9 -3 -13 -7 -11 -5 3 -14 -1 -21 -9 -7 -8
-9 -14 -4 -14 5 0 9 -7 9 -15 0 -10 -4 -12 -12 -5 -15 12 -29 -15 -18 -33 5
-9 3 -9 -8 0 -12 10 -15 9 -17 -5 -4 -36 -8 -52 -17 -59 -4 -4 -5 -2 -1 4 4 8
2 13 -7 13 -9 0 -13 -9 -11 -26 2 -22 0 -23 -14 -12 -9 7 -13 9 -10 3 10 -17
-10 -55 -29 -55 -15 0 -16 -2 -3 -10 10 -6 11 -10 3 -10 -7 0 -13 -5 -13 -11
0 -5 5 -7 12 -3 7 4 8 3 4 -5 -5 -8 -12 -9 -20 -2 -8 7 -12 4 -13 -12 -1 -12
-9 -27 -18 -33 -18 -13 -20 -28 -2 -18 7 4 9 3 4 -2 -5 -5 -13 -9 -18 -9 -5 0
-9 -3 -9 -8 0 -4 -11 -19 -24 -34 -14 -15 -23 -30 -20 -35 3 -4 -2 -8 -10 -8
-9 0 -16 -9 -16 -20 0 -12 -7 -20 -17 -20 -14 0 -15 -2 -4 -9 9 -6 10 -10 2
-12 -7 -3 -13 -14 -13 -26 -1 -13 -7 -19 -15 -16 -8 3 -13 2 -11 -3 5 -15 -35
-73 -46 -67 -5 4 -7 -1 -3 -10 6 -16 -4 -22 -27 -18 -5 1 -4 -5 4 -13 10 -13
10 -16 -3 -16 -9 0 -19 -5 -23 -12 -5 -7 -3 -8 5 -3 10 6 11 3 2 -14 -7 -11
-19 -21 -29 -22 -10 0 -12 -3 -4 -6 6 -2 12 -9 12 -15 0 -6 -6 -8 -14 -5 -17
7 -30 -20 -13 -27 7 -2 5 -5 -5 -5 -9 -1 -20 -6 -24 -13 -5 -8 -2 -9 10 -5 10
4 15 3 11 -3 -3 -6 -13 -10 -21 -10 -8 0 -13 -4 -10 -9 3 -5 -1 -11 -9 -15 -8
-3 -15 -12 -15 -21 0 -8 -7 -15 -16 -15 -11 0 -14 -6 -9 -20 5 -16 3 -19 -12
-13 -16 6 -16 5 -4 -10 12 -15 12 -17 -2 -12 -10 5 -15 1 -14 -12 1 -11 -4
-17 -13 -15 -8 2 -12 0 -8 -3 4 -4 2 -17 -4 -29 -7 -11 -11 -24 -10 -28 1 -5
-4 -7 -11 -5 -6 1 -11 -4 -9 -12 2 -8 -3 -11 -12 -8 -10 4 -13 1 -10 -7 3 -8
0 -17 -5 -21 -6 -3 -9 -10 -6 -15 3 -5 0 -12 -6 -16 -7 -4 -9 -3 -5 4 3 6 3
13 -2 16 -5 3 -9 0 -10 -7 -3 -39 -10 -68 -17 -75 -4 -4 -5 -2 -1 5 3 6 2 14
-4 18 -6 4 -10 -5 -10 -19 0 -23 -9 -30 -31 -28 -3 1 -5 -10 -4 -23 2 -16 -1
-22 -10 -19 -8 3 -12 -2 -12 -13 1 -11 -4 -17 -12 -15 -12 3 -12 0 -1 -13 11
-13 10 -14 -5 -9 -12 5 -16 4 -12 -3 8 -13 -17 -36 -28 -25 -4 4 -2 -4 5 -17
10 -19 9 -22 -1 -16 -9 6 -11 2 -6 -14 4 -17 3 -20 -8 -11 -9 8 -14 6 -19 -5
-3 -10 -2 -13 4 -10 7 4 9 -3 6 -19 -3 -19 -1 -23 11 -19 12 5 12 7 1 14 -9 6
-7 9 10 9 12 0 22 5 22 11 0 5 6 7 13 3 8 -5 7 -2 -2 9 -12 15 -12 17 3 11 9
-3 16 -1 16 6 0 6 4 9 9 5 6 -3 8 4 6 16 -3 16 -1 18 8 10 9 -7 17 -7 27 1 13
8 12 9 -2 4 -12 -3 -15 -1 -11 9 3 8 9 12 14 10 4 -3 18 4 29 15 11 11 25 18
30 15 5 -3 7 0 4 8 -7 19 25 50 44 42 9 -3 13 -3 10 1 -13 12 13 46 29 40 12
-5 13 -3 5 7 -8 10 -6 16 11 27 19 11 21 11 12 -1 -5 -8 -3 -7 6 3 9 9 20 14
25 10 5 -4 2 1 -6 11 -11 16 -11 18 1 15 8 -2 13 3 11 10 -2 10 2 10 18 2 16
-9 18 -8 14 5 -4 8 -1 15 6 15 6 0 8 5 4 13 -6 9 -4 9 8 -1 13 -11 16 -10 14
5 0 12 5 17 17 17 14 -2 15 1 6 12 -10 12 -9 13 5 8 11 -4 16 -1 16 11 0 9 4
14 9 11 5 -3 12 1 15 10 3 8 10 12 16 9 6 -3 7 1 4 9 -3 9 -1 16 5 16 6 0 11
-5 11 -12 0 -6 3 -8 6 -5 4 4 1 14 -7 23 -13 16 -12 16 8 6 16 -9 24 -9 29 0
4 7 3 8 -4 4 -7 -4 -12 -2 -12 3 0 6 7 11 15 11 8 0 15 5 15 11 0 5 -5 7 -12
3 -7 -4 -8 -3 -4 4 4 6 13 9 20 6 7 -3 19 3 27 12 12 15 12 17 0 9 -10 -5 -12
-4 -7 4 6 9 11 9 21 1 10 -8 13 -6 11 7 0 10 5 17 12 15 8 -1 16 7 19 18 4 13
11 19 20 16 8 -3 12 -2 9 2 -9 15 24 52 45 52 12 0 17 4 14 11 -4 6 2 13 13
16 11 2 23 15 27 26 3 12 9 17 11 10 3 -7 13 -4 28 10 17 17 20 26 12 36 -8
11 -8 13 1 8 7 -4 18 2 27 15 9 12 16 19 16 15 0 -4 9 -3 20 3 11 6 19 16 17
22 -1 7 14 20 33 30 19 10 28 18 20 19 -8 0 -5 4 8 10 13 5 21 13 17 19 -3 5
0 7 8 4 8 -3 20 3 28 12 8 10 9 15 2 11 -6 -4 -14 -4 -17 1 -3 5 1 9 9 10 8 1
22 3 30 4 9 1 14 7 11 14 -2 6 5 14 16 17 11 3 17 10 13 16 -3 7 0 8 9 5 19
-7 21 7 4 26 -7 8 -2 6 11 -5 14 -11 21 -14 17 -7 -12 19 23 55 40 41 10 -8
11 -5 7 13 -3 13 -2 20 2 16 4 -4 21 9 36 29 16 20 29 32 29 28 0 -4 7 -2 15
5 8 6 18 9 23 6 5 -3 8 6 6 20 -2 22 0 23 14 12 9 -7 13 -8 10 -3 -4 6 -3 17
3 25 7 13 9 13 9 0 1 -8 5 -5 11 8 5 13 14 20 20 17 6 -4 9 0 7 11 -2 14 3 19
19 18 14 -1 20 3 16 12 -3 8 2 14 11 14 9 0 21 10 26 23 5 13 9 16 10 7 0 -13
2 -13 9 0 6 8 7 19 3 25 -3 5 2 4 11 -4 15 -12 17 -12 11 3 -5 13 -2 17 12 14
11 -2 18 2 16 10 -1 6 3 12 9 12 5 0 7 5 4 11 -4 6 2 13 14 16 11 3 19 9 16
13 -3 4 5 10 16 13 12 3 18 10 15 15 -3 6 1 13 10 16 10 4 13 2 8 -6 -5 -7 -3
-8 5 -4 7 5 10 15 6 23 -5 14 -3 14 12 2 15 -12 16 -12 10 4 -6 15 3 22 26 18
4 0 6 2 6 6 -3 21 2 33 16 33 8 0 15 7 15 16 0 10 5 14 16 10 8 -3 12 -2 9 3
-3 5 -1 12 5 16 6 4 8 11 5 16 -3 5 0 6 8 3 9 -3 21 4 29 15 8 12 18 18 23 13
4 -4 5 2 1 12 -6 17 -5 17 11 5 11 -9 14 -10 9 -1 -5 8 -1 12 10 12 10 0 15 3
12 6 -9 9 31 46 42 39 6 -3 7 1 4 10 -4 11 4 19 30 30 20 8 36 18 36 21 0 3
-4 2 -10 -1 -5 -3 -10 -1 -10 4 0 6 7 11 15 11 8 0 15 8 15 18 0 14 2 15 10 2
7 -12 10 -12 10 -1 0 8 6 11 15 7 13 -5 14 -2 4 15 -8 15 -8 19 0 15 6 -4 11
-2 11 4 0 6 4 9 9 5 11 -6 34 29 25 38 -3 3 6 4 20 3 14 -2 23 1 20 5 -3 5 0
9 5 9 6 0 10 6 9 13 -2 6 5 11 14 11 10 -1 16 2 13 5 -9 15 27 53 45 48 12 -3
17 0 14 8 -3 7 4 16 16 20 16 5 18 10 10 20 -8 10 -6 13 7 11 10 0 17 4 16 11
-2 7 3 10 10 7 7 -2 21 2 32 11 16 12 17 14 3 9 -28 -10 -21 5 8 16 16 7 23
14 18 22 -5 9 -2 8 9 -1 15 -12 17 -12 11 3 -4 11 -1 16 11 16 9 0 14 3 12 8
-3 4 1 12 8 19 11 10 15 10 18 0 3 -7 6 -2 6 11 1 24 16 30 25 10 3 -7 3 -2 0
12 -4 14 -3 22 1 18 3 -3 15 2 26 13 11 11 25 17 32 12 7 -4 6 1 -3 13 -8 10
-11 16 -6 12 4 -4 19 5 33 20 14 15 27 26 29 25 2 -2 5 0 7 4 1 4 13 18 27 33
17 18 29 23 38 17 9 -7 11 -5 6 8 -5 13 -4 16 4 11 7 -4 12 -2 12 4 0 6 5 8
12 4 7 -4 8 -3 4 5 -4 6 0 14 8 17 9 3 13 11 9 17 -4 6 0 8 10 4 10 -4 17 -2
17 4 0 6 6 9 14 6 10 -4 12 0 8 15 -4 17 -2 20 12 15 10 -4 15 -3 11 3 -3 6
-1 10 5 10 6 0 9 4 6 9 -3 4 4 17 17 27 12 10 16 12 10 4 -7 -8 -13 -19 -13
-24 0 -6 10 4 21 22 12 17 27 32 34 32 7 0 15 9 18 21 3 11 15 23 26 26 11 3
23 14 26 24 4 11 11 17 16 14 5 -4 14 -3 20 1 8 4 7 9 -2 15 -11 7 -9 9 6 10
11 1 23 1 27 0 4 0 4 7 1 16 -4 10 -2 14 4 10 5 -3 10 0 10 7 0 8 -7 12 -15 8
-10 -3 -13 -1 -8 6 3 6 2 13 -4 17 -5 3 -10 2 -10 -2 0 -12 -64 -10 -72 2 -5
6 -8 5 -8 -3 0 -7 -5 -10 -10 -7 -6 4 -7 12 -3 18 5 9 3 9 -8 0 -8 -6 -29 -10
-46 -8 -20 1 -33 -2 -33 -9 0 -7 -3 -7 -8 -1 -8 12 -65 18 -58 6 3 -4 -1 -8
-9 -8 -8 0 -12 4 -9 9 3 4 -6 4 -20 -2 -14 -5 -27 -7 -27 -5 -1 3 -2 9 -3 14
0 5 -5 13 -9 18 -5 4 -8 4 -7 -2 1 -5 2 -17 1 -25 -1 -12 -3 -12 -10 -2 -10
17 -21 17 -31 2 -6 -9 -13 -9 -29 -1 -15 8 -21 9 -21 1 0 -6 -5 -8 -10 -5 -6
4 -8 12 -4 18 3 7 -2 3 -10 -7 -11 -14 -16 -15 -16 -6 0 11 -3 11 -12 2 -9 -9
-14 -7 -25 6 -10 13 -12 13 -8 2 4 -12 -1 -15 -20 -15 -14 1 -28 5 -32 8 -3 4
-12 2 -20 -4 -10 -9 -13 -7 -13 7 0 16 -2 17 -10 4 -5 -8 -10 -10 -10 -5 0 6
-5 3 -10 -5 -6 -10 -10 -11 -10 -2 0 6 -5 12 -11 12 -5 0 -7 -5 -3 -12 5 -7 3
-8 -7 -2 -19 12 -42 11 -51 -1 -5 -6 -8 -5 -8 3 0 6 -5 12 -11 12 -5 0 -8 -4
-5 -8 2 -4 -4 -8 -14 -8 -10 0 -16 5 -12 11 3 5 -2 4 -11 -4 -13 -10 -17 -10
-17 -1 0 10 -3 10 -14 1 -10 -9 -16 -9 -21 -1 -5 8 -11 7 -23 -2 -13 -11 -14
-11 -7 2 8 13 7 13 -8 1 -12 -9 -17 -10 -17 -2 0 7 -5 9 -12 5 -18 -11 -48
-12 -54 -2 -3 5 -13 3 -22 -4 -13 -11 -14 -11 -7 2 8 13 7 13 -8 1 -15 -12
-17 -11 -17 5 -1 17 -1 18 -11 2 -5 -9 -15 -15 -22 -13 -28 11 -77 11 -81 1
-3 -7 -5 -7 -5 2 -1 6 -6 12 -12 12 -5 0 -7 -6 -3 -12 6 -10 5 -10 -8 -1 -8 7
-17 11 -19 9 -10 -11 -59 -14 -59 -4 0 6 -7 5 -17 -3 -15 -12 -16 -12 -8 1 8
13 7 13 -8 1 -14 -11 -17 -11 -17 0 0 10 -3 10 -12 1 -9 -9 -15 -7 -25 6 -8 9
-12 11 -8 5 3 -7 1 -14 -4 -14 -6 -1 -17 -2 -23 -3 -7 -1 -19 2 -25 7 -9 6
-13 5 -13 -3 0 -10 -3 -10 -15 0 -8 7 -12 17 -8 23 3 6 1 7 -5 3 -6 -4 -8 -14
-5 -24 6 -14 4 -15 -9 -5 -8 7 -18 9 -22 5 -12 -12 -30 -9 -44 8 -8 8 -11 10
-8 3 4 -6 2 -14 -4 -18 -5 -3 -10 -1 -10 4 0 6 -6 10 -12 9 -9 -2 -13 10 -13
34 -1 31 2 35 14 25 11 -9 13 -9 8 0 -4 6 -3 15 3 18 8 5 8 11 0 20 -8 10 -8
15 1 21 8 4 9 3 5 -4 -4 -7 -1 -12 8 -12 9 0 13 7 11 20 -3 13 2 20 13 21 14
0 13 2 -3 9 -19 8 -19 9 2 9 17 1 20 6 15 23 -4 17 -2 20 11 15 13 -5 15 -2 7
18 -8 21 -6 23 11 20 17 -4 19 -2 9 10 -10 12 -9 15 6 15 16 0 17 2 4 10 -10
6 -11 10 -2 10 6 0 12 9 12 19 0 11 4 23 10 26 6 4 7 -1 4 -12 -6 -16 -5 -16
8 1 9 11 13 28 10 38 -3 12 0 18 9 16 8 -2 13 3 12 10 -2 6 3 12 10 12 8 0 7
4 -3 10 -10 6 -11 10 -3 10 7 0 12 4 10 9 -1 5 7 17 18 26 11 9 14 13 6 9 -10
-5 -6 6 8 29 13 21 21 44 18 52 -4 9 0 12 13 10 13 -3 17 1 13 11 -3 8 1 14 8
14 11 0 11 2 1 9 -10 6 -9 11 4 22 15 12 17 12 9 0 -5 -9 -4 -12 3 -7 6 4 8
14 5 23 -5 12 -3 14 7 8 10 -6 12 -4 7 8 -3 8 0 18 8 21 7 2 11 13 9 24 -4 12
2 22 18 29 13 7 18 12 11 12 -13 1 -5 41 9 41 5 0 6 -5 2 -12 -4 -7 -3 -8 5
-4 9 6 9 11 -1 24 -10 12 -10 14 0 8 6 -4 12 -4 13 1 2 27 9 44 22 58 9 8 14
25 12 36 -3 16 -1 18 8 10 10 -7 13 -3 15 17 1 15 9 32 18 39 9 7 13 17 8 24
-5 9 -2 10 11 5 15 -5 16 -4 5 9 -7 9 -9 15 -4 14 21 -4 28 2 14 11 -10 6 -11
10 -2 10 6 0 12 7 12 15 0 8 8 15 18 15 14 0 15 2 2 10 -12 7 -12 10 -1 10 7
0 11 6 8 14 -4 10 0 14 13 11 13 -3 17 1 13 11 -7 18 16 46 30 37 6 -4 7 -1 1
8 -18 29 -3 75 20 62 6 -3 8 -3 4 2 -5 5 1 14 11 22 13 8 17 20 14 34 -4 13
-2 20 3 16 6 -3 11 3 11 14 1 12 -3 17 -9 13 -7 -4 -8 -2 -4 5 6 9 11 9 21 1
9 -8 12 -4 10 15 -2 14 1 25 6 25 6 0 7 4 4 10 -3 6 1 7 9 4 9 -3 16 -2 16 4
0 6 -6 13 -12 15 -10 4 -10 6 0 6 7 1 10 6 6 13 -5 8 -2 9 10 5 9 -4 15 -3 12
2 -3 5 1 14 8 20 8 7 13 23 11 37 -1 15 3 28 11 31 8 3 13 10 12 17 -3 23 43
102 54 91 2 -3 3 9 2 25 -1 21 2 27 12 23 8 -3 14 -2 13 3 -3 19 1 35 9 30 5
-3 9 1 9 9 0 8 -4 12 -9 9 -4 -3 -8 0 -8 5 0 6 7 11 16 11 11 0 14 5 10 16 -5
12 -2 15 11 10 17 -6 17 -5 1 8 -10 7 -18 16 -18 19 0 4 8 4 18 1 9 -2 6 1 -7
8 -19 10 -25 10 -29 0 -2 -6 -8 -12 -13 -12 -6 0 -7 5 -4 10 3 6 4 10 1 10 -3
0 -7 -2 -7 -5z m-101 -349 c-7 -8 -15 -12 -17 -11 -5 6 10 25 20 25 5 0 4 -6
-3 -14z m-93 -197 c-10 -15 -25 -10 -19 6 4 8 10 12 15 9 5 -3 7 -10 4 -15z
m-55 -93 c0 -3 -4 -8 -10 -11 -5 -3 -10 -1 -10 4 0 6 5 11 10 11 6 0 10 -2 10
-4z m-253 -482 c-3 -3 -12 -4 -19 -1 -8 3 -5 6 6 6 11 1 17 -2 13 -5z m-677
-88 c0 -3 -4 -8 -10 -11 -5 -3 -10 -1 -10 4 0 6 5 11 10 11 6 0 10 -2 10 -4z
m524 -192 c3 -8 2 -12 -4 -9 -6 3 -10 10 -10 16 0 14 7 11 14 -7z m-59 -1744
c3 -6 -1 -7 -9 -4 -18 7 -21 14 -7 14 6 0 13 -4 16 -10z"/>
<path d="M3396 4293 c-6 -14 -5 -15 5 -6 7 7 10 15 7 18 -3 3 -9 -2 -12 -12z"/>
<path d="M4035 2580 c-3 -6 1 -7 9 -4 18 7 21 14 7 14 -6 0 -13 -4 -16 -10z"/>
<path d="M1280 2370 c-9 -6 -10 -10 -3 -10 6 0 15 5 18 10 8 12 4 12 -15 0z"/>
<path d="M3769 2333 c-13 -16 -12 -17 4 -4 9 7 17 15 17 17 0 8 -8 3 -21 -13z"/>
<path d="M3690 2259 c0 -5 5 -7 10 -4 6 3 10 8 10 11 0 2 -4 4 -10 4 -5 0 -10
-5 -10 -11z"/>
<path d="M1133 2233 c4 -3 1 -13 -6 -22 -11 -14 -10 -14 5 -2 16 12 16 31 1
31 -4 0 -3 -3 0 -7z"/>
<path d="M3357 1963 c-4 -3 -7 -11 -7 -17 0 -6 5 -5 12 2 6 6 9 14 7 17 -3 3
-9 2 -12 -2z"/>
<path d="M2446 1917 c3 -10 9 -15 12 -12 3 3 0 11 -7 18 -10 9 -11 8 -5 -6z"/>
<path d="M3108 1723 c7 -3 16 -2 19 1 4 3 -2 6 -13 5 -11 0 -14 -3 -6 -6z"/>
<path d="M2950 1579 c0 -5 5 -7 10 -4 6 3 10 8 10 11 0 2 -4 4 -10 4 -5 0 -10
-5 -10 -11z"/>
<path d="M2439 1113 c-13 -17 -13 -17 6 -3 11 8 22 16 24 17 2 2 0 3 -6 3 -6
0 -17 -8 -24 -17z"/>
<path d="M1735 860 c3 -5 8 -10 11 -10 2 0 4 5 4 10 0 6 -5 10 -11 10 -5 0 -7
-4 -4 -10z"/>
<path d="M2135 840 c-3 -5 -1 -10 4 -10 6 0 11 5 11 10 0 6 -2 10 -4 10 -3 0
-8 -4 -11 -10z"/>
</g>
</svg>
