<svg width="500" height="500" viewBox="0 0 500 500" fill="none" xmlns="http://www.w3.org/2000/svg">
<path d="M234.577 499.772C231.721 499.772 229.445 497.383 229.583 494.53L237.27 336.397C237.55 330.642 229.479 329.057 227.561 334.49L174.822 483.917C173.88 486.586 170.913 487.942 168.279 486.907L139.678 475.671C136.984 474.613 135.748 471.495 136.987 468.878L204.798 325.599C207.271 320.375 200.382 315.818 196.542 320.138L91.5912 438.208C89.6799 440.358 86.3529 440.456 84.3186 438.421L61.6458 415.749C59.6115 413.714 59.7093 410.387 61.8595 408.476L179.929 303.525C184.249 299.686 179.692 292.796 174.468 295.269L31.1889 363.08C28.5725 364.319 25.4546 363.083 24.3962 360.389L13.1601 331.788C12.1252 329.154 13.481 326.187 16.1497 325.245L165.577 272.506C171.011 270.588 169.425 262.517 163.67 262.797L5.53769 270.484C2.68431 270.623 0.294922 268.347 0.294922 265.49V234.881C0.294922 232.01 2.70627 229.729 5.57227 229.888L163.635 238.669C169.389 238.989 171.029 230.927 165.607 228.973L16.1678 175.131C13.4941 174.168 12.1599 171.173 13.2322 168.541L24.3591 141.229C25.4418 138.571 28.5346 137.369 31.1285 138.596L175.037 206.705C180.247 209.171 184.805 202.318 180.517 198.466L61.9135 91.943C59.7465 89.9967 59.6952 86.6175 61.8022 84.6063L84.338 63.0949C86.3793 61.1464 89.6275 61.2722 91.512 63.3726L196.558 180.455C200.414 184.753 207.278 180.176 204.793 174.964L136.938 32.6885C135.716 30.125 136.871 27.0592 139.482 25.9404L168.18 13.6412C170.841 12.5009 173.911 13.8516 174.868 16.5837L227.557 166.968C229.465 172.411 237.548 170.834 237.27 165.073L229.581 5.80263C229.444 2.94986 231.72 0.561523 234.576 0.561523H265.187C268.057 0.561523 270.338 2.97287 270.179 5.83887L261.398 163.901C261.078 169.655 269.141 171.295 271.094 165.874L324.88 16.5907C325.864 13.8587 328.961 12.5371 331.614 13.7165L359.038 25.9048C361.61 27.0476 362.732 30.0864 361.521 32.6262L293.369 175.525C290.889 180.724 297.718 185.303 301.586 181.036L408.206 63.4246C410.125 61.3075 413.425 61.2267 415.445 63.2473L436.82 84.6217C438.84 86.6423 438.76 89.9424 436.643 91.8617L319.031 198.481C314.764 202.35 319.343 209.178 324.542 206.698L467.441 138.547C469.981 137.335 473.02 138.458 474.162 141.029L486.346 168.441C487.527 171.099 486.199 174.2 483.46 175.18L333.07 228.969C327.638 230.912 329.269 238.987 335.029 238.67L494.23 229.886C497.096 229.728 499.506 232.009 499.506 234.878V265.492C499.506 268.348 497.117 270.623 494.265 270.486L334.994 262.797C329.233 262.519 327.656 270.603 333.1 272.51L483.484 325.199C486.216 326.156 487.566 329.227 486.426 331.887L474.127 360.585C473.008 363.196 469.942 364.351 467.379 363.129L325.104 295.275C319.891 292.789 315.314 299.653 319.612 303.509L436.695 408.555C438.795 410.44 438.921 413.688 436.972 415.729L415.461 438.265C413.45 440.372 410.07 440.321 408.124 438.154L301.601 319.551C297.749 315.262 290.896 319.82 293.362 325.031L361.471 468.939C362.699 471.533 361.496 474.625 358.838 475.708L331.527 486.835C328.895 487.907 325.899 486.573 324.936 483.899L271.094 334.46C269.141 329.038 261.078 330.678 261.398 336.432L270.179 494.495C270.338 497.361 268.057 499.772 265.187 499.772H234.577Z" fill="black"/>
</svg>
