<svg width="504" height="504" viewBox="0 0 504 504" fill="none" xmlns="http://www.w3.org/2000/svg">
<path d="M238.271 338.291L230.584 496.424C230.418 499.848 233.149 502.715 236.577 502.715H267.187C270.631 502.715 273.369 499.822 273.177 496.382L264.396 338.32C264.14 333.717 270.591 332.405 272.153 336.742L325.995 486.181C327.151 489.39 330.746 490.991 333.904 489.704L361.215 478.577C364.405 477.278 365.848 473.566 364.375 470.454L296.266 326.546C294.293 322.377 299.776 318.731 302.857 322.162L409.38 440.765C411.716 443.365 415.771 443.427 418.184 440.898L439.696 418.363C442.034 415.913 441.883 412.015 439.362 409.754L322.28 304.708C318.841 301.623 322.503 296.131 326.673 298.12L468.948 365.974C472.024 367.441 475.703 366.055 477.046 362.922L489.345 334.224C490.714 331.031 489.093 327.347 485.814 326.198L335.43 273.509C331.076 271.983 332.337 265.516 336.946 265.739L496.216 273.427C499.64 273.593 502.506 270.862 502.506 267.434V236.821C502.506 233.378 499.614 230.641 496.175 230.83L336.974 239.614C332.366 239.868 331.061 233.408 335.406 231.854L485.797 178.064C489.084 176.889 490.677 173.167 489.259 169.978L477.076 142.566C475.705 139.48 472.058 138.133 469.01 139.587L326.112 207.739C321.953 209.722 318.289 204.26 321.703 201.165L439.314 94.5454C441.855 92.2423 441.952 88.2822 439.527 85.8575L418.153 64.4831C415.728 62.0583 411.768 62.1553 409.465 64.6959L302.845 182.307C299.75 185.721 294.288 182.058 296.271 177.899L364.423 34.9996C365.877 31.9518 364.53 28.3053 361.444 26.9339L334.021 14.7456C330.836 13.3303 327.12 14.9163 325.939 18.1946L272.153 167.477C270.591 171.815 264.14 170.503 264.396 165.9L273.177 7.83721C273.369 4.39801 270.631 1.50439 267.187 1.50439H236.576C233.148 1.50439 230.417 4.3704 230.583 7.79372L238.272 167.064C238.494 171.673 232.027 172.934 230.501 168.58L177.812 18.1959C176.663 14.9174 172.979 13.2965 169.786 14.665L141.088 26.9641C137.955 28.3067 136.569 31.9857 138.036 35.0618L205.89 177.337C207.879 181.507 202.387 185.169 199.302 181.73L94.2564 64.6477C91.995 62.1271 88.097 61.9762 85.6475 64.3144L63.1117 85.8259C60.5834 88.2393 60.6449 92.2943 63.2453 94.6299L181.848 201.153C185.279 204.234 181.633 209.717 177.464 207.744L33.5563 139.635C30.4436 138.162 26.7323 139.605 25.433 142.795L14.3061 170.106C13.0194 173.264 14.6204 176.859 17.8288 178.015L167.268 231.857C171.605 233.42 170.294 239.87 165.69 239.614L7.62774 230.833C4.18854 230.642 1.29492 233.379 1.29492 236.823V267.433C1.29492 270.861 4.16218 273.592 7.58625 273.426L165.719 265.739C170.323 265.515 171.591 271.972 167.244 273.506L17.8169 326.245C14.6144 327.375 12.9875 330.936 14.2293 334.097L25.4654 362.698C26.7355 365.931 30.4771 367.413 33.6167 365.927L176.896 298.116C181.075 296.138 184.72 301.649 181.265 304.721L63.1951 409.671C60.6149 411.965 60.4976 415.957 62.9387 418.399L85.6115 441.071C88.0526 443.513 92.0451 443.395 94.3386 440.815L199.289 322.745C202.361 319.29 207.872 322.935 205.894 327.114L138.083 470.393C136.597 473.533 138.079 477.275 141.312 478.545L169.913 489.781C173.074 491.023 176.635 489.396 177.765 486.193L230.504 336.766C232.038 332.419 238.495 333.687 238.271 338.291Z" stroke="black" stroke-width="2" stroke-linejoin="round"/>
</svg>
