<svg width="1001" height="501" viewBox="0 0 1001 501" fill="none" xmlns="http://www.w3.org/2000/svg">
<path fill-rule="evenodd" clip-rule="evenodd" d="M0.146606 0.453613L0.146606 500.454L1000.15 500.454V0.453613L0.146606 0.453613ZM500.147 30.4536C621.649 30.4536 720.147 128.951 720.147 250.454C720.147 371.956 621.649 470.454 500.147 470.454C378.644 470.454 280.147 371.956 280.147 250.454C280.147 128.951 378.644 30.4536 500.147 30.4536Z" fill="#E6351E"/>
<path d="M500.147 31.4536C621.097 31.4536 719.147 129.503 719.147 250.454C719.147 371.404 621.097 469.454 500.147 469.454C379.196 469.454 281.147 371.404 281.147 250.454C281.147 129.503 379.196 31.4536 500.147 31.4536Z" stroke="white" stroke-width="2"/>
</svg>
