<svg width="501" height="1001" viewBox="0 0 501 1001" fill="none" xmlns="http://www.w3.org/2000/svg">
<path fill-rule="evenodd" clip-rule="evenodd" d="M500.147 0.699707H0.146606V1000.7H500.147V0.699707ZM470.147 500.7C470.147 622.202 371.649 720.7 250.147 720.7C128.644 720.7 30.1466 622.202 30.1466 500.7C30.1466 379.197 128.644 280.7 250.147 280.7C371.649 280.7 470.147 379.197 470.147 500.7Z" fill="#FF0000"/>
<path d="M469.147 500.7C469.147 621.65 371.097 719.7 250.147 719.7C129.196 719.7 31.1466 621.65 31.1466 500.7C31.1466 379.749 129.196 281.7 250.147 281.7C371.097 281.7 469.147 379.749 469.147 500.7Z" stroke="white" stroke-width="2"/>
</svg>
