<svg width="501" height="1001" viewBox="0 0 501 1001" fill="none" xmlns="http://www.w3.org/2000/svg">
<path fill-rule="evenodd" clip-rule="evenodd" d="M500.947 0.453613H0.947388V1000.45H500.947V0.453613ZM470.947 500.454C470.947 621.956 372.45 720.454 250.947 720.454C129.445 720.454 30.9474 621.956 30.9474 500.454C30.9474 378.951 129.445 280.454 250.947 280.454C372.45 280.454 470.947 378.951 470.947 500.454Z" fill="#E6351E"/>
<path d="M469.947 500.454C469.947 621.404 371.898 719.454 250.947 719.454C129.997 719.454 31.9474 621.404 31.9474 500.454C31.9474 379.503 129.997 281.454 250.947 281.454C371.898 281.454 469.947 379.503 469.947 500.454Z" stroke="white" stroke-width="2"/>
</svg>
