<svg xmlns="http://www.w3.org/2000/svg" viewBox="0 0 324.76 139.77"><defs><style>.cls-1{fill:gold;}</style></defs><g id="Layer_2" data-name="Layer 2"><g id="Layer_1-2" data-name="Layer 1"><path class="cls-1" d="M50.08,71.58a3.2,3.2,0,0,1,.7-2,4.23,4.23,0,0,1,1.8-1.34l2-.61a3,3,0,0,0,1.16-.79,6,6,0,0,0,.9-1.68c.29-.78.65-1.88,1.09-3.31Q58.22,60,59,57.13t1.69-6.26c.6-2.28,1.2-4.62,1.82-7s1.21-4.76,1.81-7.07S65.47,32.35,66,30.4l1.23-5c.33-1.38.56-2.31.68-2.81a3.17,3.17,0,0,0,0-1.88,1.71,1.71,0,0,0-1.14-1l-1.84-.66a4.26,4.26,0,0,1-1.44-1.05A2.34,2.34,0,0,1,63,16.5a3.11,3.11,0,0,1,1-2.45,4.5,4.5,0,0,1,3-.92H92.9a34.05,34.05,0,0,1,12.54,2.17,22.75,22.75,0,0,1,9,6.28,22.09,22.09,0,0,1,4.8,10A32.28,32.28,0,0,1,119,44.79a37.83,37.83,0,0,1-5,12.82,33.91,33.91,0,0,1-8.58,9.28,37.27,37.27,0,0,1-11.19,5.63,43.22,43.22,0,0,1-12.91,1.9H53.54a3.61,3.61,0,0,1-2.76-.8A3,3,0,0,1,50.08,71.58ZM82.17,68a9.17,9.17,0,0,0,4.42-1.22,14.34,14.34,0,0,0,4.34-4,32.69,32.69,0,0,0,4-7.24A67.28,67.28,0,0,0,98.2,44.52a60.57,60.57,0,0,0,1.68-11.4,25,25,0,0,0-.74-7.77,9.56,9.56,0,0,0-2.5-4.47A5.24,5.24,0,0,0,93,19.44h-.66a4.67,4.67,0,0,0-3.43,1.4,11.86,11.86,0,0,0-2.52,4.77c-.21.61-.5,1.6-.88,3s-.81,2.95-1.31,4.79l-1.6,5.91q-.85,3.15-1.68,6.39c-.56,2.16-1.08,4.23-1.58,6.22s-.93,3.77-1.29,5.36-.63,2.87-.81,3.83c-.44,2.4-.34,4.15.31,5.28A3.64,3.64,0,0,0,81,68Z" transform="translate(-1.82 -13.13)"/><path class="cls-1" d="M165.7,58.66a10.16,10.16,0,0,0-.48,4.25c.21.79.6,1.18,1.18,1.18a2.14,2.14,0,0,0,1-.24,7.88,7.88,0,0,0,1.22-.81,4.81,4.81,0,0,1,1.73-1,1.93,1.93,0,0,1,1.34.2,1.8,1.8,0,0,1,.9,1.62,6.26,6.26,0,0,1-.9,3,15.81,15.81,0,0,1-6.24,6.44,17.3,17.3,0,0,1-8.87,2.45c-2.65,0-4.55-.67-5.69-2a8,8,0,0,1-1.7-5.41c0-.73,0-1.49.08-2.28s.14-1.59.24-2.4.23-1.62.38-2.41.3-1.55.48-2.28l1.22,3.5a16.69,16.69,0,0,1-3.85,7,19.22,19.22,0,0,1-6.54,4.64,20.19,20.19,0,0,1-8.08,1.64q-6.14,0-9.39-3.85t-2.3-11.56a31.53,31.53,0,0,1,2.23-8.25,32.2,32.2,0,0,1,11.54-14.15,33.54,33.54,0,0,1,9.26-4.37A39,39,0,0,1,155.94,32a52.8,52.8,0,0,1,10.29.83A15,15,0,0,1,172.12,35a3.34,3.34,0,0,1,1.6,3.18,3.1,3.1,0,0,1-1.1,2.21c-.58.42-1.18.85-1.79,1.27A3.8,3.8,0,0,0,169.47,44Zm-25.91,1.45c-.27,2.22-.19,3.75.24,4.6A1.9,1.9,0,0,0,141.71,66a4.1,4.1,0,0,0,2.48-1,13.22,13.22,0,0,0,2.6-2.89,30.94,30.94,0,0,0,2.54-4.47,42.42,42.42,0,0,0,2.21-5.8,53.73,53.73,0,0,0,1.6-6.85,11.53,11.53,0,0,0,.13-5,1.91,1.91,0,0,0-1.93-1.55,4.68,4.68,0,0,0-3,1.31,15.3,15.3,0,0,0-2.89,3.57,36.44,36.44,0,0,0-2.54,5.08,47.05,47.05,0,0,0-2,5.84A45.48,45.48,0,0,0,139.79,60.11Z" transform="translate(-1.82 -13.13)"/><path class="cls-1" d="M179,45.66a1.78,1.78,0,0,1-.89-1.62,6.12,6.12,0,0,1,.89-3,16.22,16.22,0,0,1,6.57-6.57A20.89,20.89,0,0,1,196,32a9.33,9.33,0,0,1,5.62,1.44,4.87,4.87,0,0,1,1.95,4.16,10,10,0,0,1-.76,3.59c-.51,1.32-1.1,2.68-1.78,4.1s-1.29,2.82-1.86,4.22a13.07,13.07,0,0,0-1,4l-1.49-.39A44.21,44.21,0,0,1,202,43a29.68,29.68,0,0,1,6.23-6.5A22.71,22.71,0,0,1,214.82,33a21.13,21.13,0,0,1,6.35-1q4.25,0,6.35,1.86a7.1,7.1,0,0,1,2.3,5.12,19.29,19.29,0,0,1-1.29,7.47l-4.29,12.21c-.7,2-1,3.36-.75,4.14s.6,1.16,1.18,1.16a2.14,2.14,0,0,0,1-.24,7.88,7.88,0,0,0,1.22-.81,4.53,4.53,0,0,1,1.73-1,1.87,1.87,0,0,1,1.34.2,1.8,1.8,0,0,1,.9,1.62,6.29,6.29,0,0,1-.9,3,15.92,15.92,0,0,1-6.46,6.56,20.23,20.23,0,0,1-10.26,2.5q-4.43,0-6.51-1.69a6.08,6.08,0,0,1-2.19-4.73,19.37,19.37,0,0,1,1.3-7l4.29-12.17a8.78,8.78,0,0,0,.87-4.36c-.17-1-.85-1.47-2-1.47a4.6,4.6,0,0,0-2.39.77,11.34,11.34,0,0,0-2.47,2.15,19.54,19.54,0,0,0-2.34,3.3,30.51,30.51,0,0,0-2,4.29c-.52,1.4-1,2.66-1.38,3.77s-.69,2.08-.9,2.91a9.59,9.59,0,0,0-.3,2.21,7.09,7.09,0,0,0,.5,2.67,7.25,7.25,0,0,1,.5,2.8q0,3-3.76,4.77t-10.55,1.8q-4.77,0-5.82-3t.87-8.19l5.82-15.45c.76-2,1-3.37.79-4.14s-.64-1.16-1.22-1.16a2.28,2.28,0,0,0-1,.22,5.59,5.59,0,0,0-1.22.83,4.83,4.83,0,0,1-1.73,1A2,2,0,0,1,179,45.66Z" transform="translate(-1.82 -13.13)"/><path class="cls-1" d="M253.66,70.05a3.91,3.91,0,0,0,2.86-1,3.5,3.5,0,0,0,1-2.63,4.5,4.5,0,0,0-.59-2.3A7.06,7.06,0,0,0,254.71,62a42.6,42.6,0,0,0-5-2.69,34.59,34.59,0,0,1-6.06-3.64,10.5,10.5,0,0,1-4.4-8.93,11.58,11.58,0,0,1,2.64-7.33A18.34,18.34,0,0,1,249.67,34a33.83,33.83,0,0,1,12.48-2,27.7,27.7,0,0,1,9.5,1.38,12,12,0,0,1,5.56,3.81,9,9,0,0,1,1.84,5.58,7.92,7.92,0,0,1-1.25,5,4.28,4.28,0,0,1-3.61,1.7A5.53,5.53,0,0,1,270.47,48a15.06,15.06,0,0,1-3.24-4.91A14.28,14.28,0,0,0,264,38.85a6.14,6.14,0,0,0-4-1.42,3.75,3.75,0,0,0-2.56.83,3.16,3.16,0,0,0-.94,2.5,4.87,4.87,0,0,0,.61,2.28,9,9,0,0,0,2.32,2.49,36.3,36.3,0,0,0,4.95,3.15,39,39,0,0,1,6.5,4.23,11.11,11.11,0,0,1,3.18,4,12.38,12.38,0,0,1,.87,4.8,10.63,10.63,0,0,1-2.8,7.27,18.52,18.52,0,0,1-7.84,4.94,35.06,35.06,0,0,1-11.82,1.8,30.92,30.92,0,0,1-10.59-1.51A12.22,12.22,0,0,1,236,70.16a9.59,9.59,0,0,1-1.81-5.67,7.79,7.79,0,0,1,1.38-4.58,4.25,4.25,0,0,1,3.57-1.68,6,6,0,0,1,4.37,1.64,16.48,16.48,0,0,1,3.24,4.88A12,12,0,0,0,250,68.91,6.17,6.17,0,0,0,253.66,70.05Z" transform="translate(-1.82 -13.13)"/><path class="cls-1" d="M20.58,115.4l3.48-9.87a7.28,7.28,0,0,0,.56-3c-.09-.66-.54-1-1.34-1a3.61,3.61,0,0,0-2.2.9A10,10,0,0,0,18.86,105,20.2,20.2,0,0,0,17,108.74c-.36,1-.67,1.82-.95,2.58s-.47,1.42-.61,2a6.48,6.48,0,0,0-.21,1.52,4.59,4.59,0,0,0,.35,1.83,5.22,5.22,0,0,1,.34,1.92q0,2-2.58,3.27a17.17,17.17,0,0,1-7.23,1.23q-3.27,0-4-2.07t.6-5.61l4-10.59A5.21,5.21,0,0,0,7.2,102c-.16-.53-.44-.79-.84-.79a1.58,1.58,0,0,0-.66.15,4.14,4.14,0,0,0-.84.57,3.2,3.2,0,0,1-1.19.67,1.38,1.38,0,0,1-.91-.1,1.2,1.2,0,0,1-.61-1.11,4.22,4.22,0,0,1,.61-2.07,10.81,10.81,0,0,1,4.49-4.5,14.36,14.36,0,0,1,7.15-1.71,6.36,6.36,0,0,1,3.85,1,3.34,3.34,0,0,1,1.34,2.85,6.84,6.84,0,0,1-.52,2.46c-.36.9-.76,1.83-1.22,2.8s-.89,1.94-1.27,2.9a9,9,0,0,0-.68,2.73l-1-.27a27.19,27.19,0,0,1,5-8.64,17.57,17.57,0,0,1,5.95-4.49,14.76,14.76,0,0,1,5.85-1.33,8.07,8.07,0,0,1,4.43,1,3.21,3.21,0,0,1,1.48,2.85,7,7,0,0,1-.51,2.46c-.34.9-.73,1.83-1.18,2.8s-.87,1.94-1.24,2.9a9.43,9.43,0,0,0-.64,2.73l-1.26-.27a30.41,30.41,0,0,1,3.62-6.9,20.33,20.33,0,0,1,4.27-4.46,15.48,15.48,0,0,1,4.53-2.38,14.44,14.44,0,0,1,4.35-.72,6.4,6.4,0,0,1,4.35,1.27,4.86,4.86,0,0,1,1.57,3.51,13,13,0,0,1-.88,5.12l-2.94,8.37a5.16,5.16,0,0,0-.47,2.82c.17.54.45.81.83.81a1.52,1.52,0,0,0,.71-.17,5,5,0,0,0,.79-.55,3.59,3.59,0,0,1,1.25-.71,1.1,1.1,0,0,1,.85.14,1.23,1.23,0,0,1,.65,1.11,4.14,4.14,0,0,1-.65,2.07,10.54,10.54,0,0,1-4.36,4.5,14.06,14.06,0,0,1-7.1,1.71,6.9,6.9,0,0,1-4.41-1.16,4.29,4.29,0,0,1-1.52-3.24,12.8,12.8,0,0,1,.86-4.81L42,105.53a6.09,6.09,0,0,0,.6-3c-.12-.67-.58-1-1.38-1a3.61,3.61,0,0,0-2.2.9A10,10,0,0,0,36.77,105a19.61,19.61,0,0,0-1.91,3.78c-.36,1-.67,1.82-.94,2.58s-.48,1.42-.62,2a6.48,6.48,0,0,0-.21,1.52,4.77,4.77,0,0,0,.35,1.83,5,5,0,0,1,.34,1.92q0,2-2.58,3.27A17.17,17.17,0,0,1,24,123.08a4.66,4.66,0,0,1-3.21-.93,3.42,3.42,0,0,1-1-2.66A12.55,12.55,0,0,1,20.58,115.4Z" transform="translate(-1.82 -13.13)"/><path class="cls-1" d="M89,111.38a6.84,6.84,0,0,0-.33,2.91q.21.81.81.81a1.47,1.47,0,0,0,.66-.17,5.53,5.53,0,0,0,.84-.55,3.2,3.2,0,0,1,1.19-.71,1.28,1.28,0,0,1,.91.14,1.23,1.23,0,0,1,.62,1.11,4.25,4.25,0,0,1-.62,2.07,10.89,10.89,0,0,1-4.27,4.41,11.84,11.84,0,0,1-6.08,1.68,4.89,4.89,0,0,1-3.9-1.37A5.49,5.49,0,0,1,77.7,118q0-.75.06-1.56c0-.54.1-1.09.17-1.65s.15-1.11.25-1.65.21-1.06.33-1.56l.84,2.4a11.42,11.42,0,0,1-2.64,4.78A13.08,13.08,0,0,1,72.23,122a13.79,13.79,0,0,1-5.54,1.13,8,8,0,0,1-6.43-2.64q-2.23-2.64-1.58-7.92a21.75,21.75,0,0,1,1.53-5.66,22.22,22.22,0,0,1,3.15-5.29,21.79,21.79,0,0,1,4.76-4.4,22.92,22.92,0,0,1,6.34-3,26.83,26.83,0,0,1,7.89-1.09,35.87,35.87,0,0,1,7.05.57,10.27,10.27,0,0,1,4,1.54,2.28,2.28,0,0,1,1.09,2.18,2.12,2.12,0,0,1-.75,1.51l-1.23.87a2.64,2.64,0,0,0-.93,1.55Zm-17.76,1a6.19,6.19,0,0,0,.17,3.15,1.3,1.3,0,0,0,1.15.87,2.76,2.76,0,0,0,1.69-.69,9.09,9.09,0,0,0,1.79-2,21.38,21.38,0,0,0,1.74-3.06,28.08,28.08,0,0,0,1.51-4,35.4,35.4,0,0,0,1.1-4.69,7.93,7.93,0,0,0,.09-3.41,1.31,1.31,0,0,0-1.32-1.06,3.17,3.17,0,0,0-2.08.9,10.37,10.37,0,0,0-2,2.44,23.52,23.52,0,0,0-1.74,3.48,31.44,31.44,0,0,0-1.34,4A30.88,30.88,0,0,0,71.28,112.37Z" transform="translate(-1.82 -13.13)"/><path class="cls-1" d="M168,111.75a22.76,22.76,0,0,1-3.63,8.78,24.74,24.74,0,0,1-6.61,6.45,30,30,0,0,1-8.8,4,38.55,38.55,0,0,1-10.25,1.33,36.49,36.49,0,0,1-7.31-.61,29.88,29.88,0,0,1-6.13-2.06l2.15-5.56a14.86,14.86,0,0,0,3.81,1.86,13.43,13.43,0,0,0,4.11.59,11.26,11.26,0,0,0,6.22-1.79,14.75,14.75,0,0,0,4.79-5.36,27.84,27.84,0,0,0,2.91-8.83,22.55,22.55,0,0,0,.35-8.21,7.7,7.7,0,0,0-2.16-4.39,5.22,5.22,0,0,0-3.53-1.36,4.78,4.78,0,0,0-3.61,1.38,10.48,10.48,0,0,0-2.21,4.35c-.09.33-.29,1.15-.61,2.48s-.74,3-1.25,5-1.07,4.22-1.69,6.63-1.23,4.88-1.86,7.4-1.24,4.95-1.84,7.27-1.13,4.4-1.62,6.24-.85,3.27-1.11,4.29a4.42,4.42,0,0,0-.24,2.36,1.36,1.36,0,0,0,1,.92l3.77.66a2.4,2.4,0,0,1,1.55,1,3,3,0,0,1,.46,1.71,3.12,3.12,0,0,1-1.05,2.43,4.37,4.37,0,0,1-3,.94H105.38c-1.43,0-2.37-.28-2.81-.83a3.27,3.27,0,0,1-.65-2.06,2.93,2.93,0,0,1,.76-2.06,4.85,4.85,0,0,1,1.73-1.22l2-.62a2.75,2.75,0,0,0,1.36-1,6.73,6.73,0,0,0,.79-1.82c.29-1,.7-2.39,1.22-4.29s1.13-4.08,1.8-6.54,1.36-5,2.08-7.75l2.1-8c.69-2.65,1.31-5.09,1.88-7.34s1-4.14,1.43-5.69.61-2.55.7-3a2.38,2.38,0,0,0-.11-1.64,2,2,0,0,0-1.08-.77l-1.84-.66a4.22,4.22,0,0,1-1.44-1.07,2.37,2.37,0,0,1-.48-1.55,3.11,3.11,0,0,1,1-2.45,4.31,4.31,0,0,1,3-.92h28.23a30.57,30.57,0,0,1,9.79,1.46A18.71,18.71,0,0,1,164,96a14.85,14.85,0,0,1,3.92,6.77A19.48,19.48,0,0,1,168,111.75Z" transform="translate(-1.82 -13.13)"/><path class="cls-1" d="M176.47,133.16c2-.53,3.72-1,5.28-1.4l5-1.34,5.28-1.4c1.72-.45,3.19-.85,4.42-1.2l-1.75,1.92a27.57,27.57,0,0,0,.85-4.18,47.62,47.62,0,0,0,.38-5.4,7.67,7.67,0,0,0-.68-3.55,2.22,2.22,0,0,0-2.08-1.27,3.54,3.54,0,0,0-2.32,1,9.88,9.88,0,0,0-2.13,2.85,22.34,22.34,0,0,0-1.7,4.51,37.65,37.65,0,0,0-1.08,6c-.38,4.11.12,7.24,1.49,9.37s3.56,3.19,6.57,3.19a11,11,0,0,0,4.11-.74,14.2,14.2,0,0,0,3.55-2,22.1,22.1,0,0,0,3.11-2.95,11.45,11.45,0,0,1,2.32-2.19,3.53,3.53,0,0,1,2-.53,2.48,2.48,0,0,1,2,1.16c.51.75.54,1.94.11,3.57a16.72,16.72,0,0,1-4,7,21.69,21.69,0,0,1-8.08,5.32,33.68,33.68,0,0,1-12.44,2q-7.26,0-11.68-2.32a12.9,12.9,0,0,1-6.2-6.56,20.94,20.94,0,0,1-1.25-10,27.39,27.39,0,0,1,2.83-9.83,26.38,26.38,0,0,1,6.1-7.9,27.84,27.84,0,0,1,8.85-5.25,31,31,0,0,1,11-1.89,17,17,0,0,1,7.85,1.58,11.27,11.27,0,0,1,4.65,4.27,16.33,16.33,0,0,1,2.07,6.15,8.45,8.45,0,0,0,.53,1.82,1.9,1.9,0,0,0,1,1.07,2.54,2.54,0,0,1,1,.7,1.82,1.82,0,0,1,.37,1.22,3,3,0,0,1-.85,2.06,6.5,6.5,0,0,1-3.17,1.58c-1.4.35-3.18.8-5.32,1.36l-6.94,1.79-7.38,1.93q-3.66,1-6.67,1.73c-2,.51-4.24,1.08-6.66,1.73Z" transform="translate(-1.82 -13.13)"/><path class="cls-1" d="M261.14,135.83a10.15,10.15,0,0,0-.48,4.25c.2.78.6,1.18,1.18,1.18a2.2,2.2,0,0,0,1-.24,7.88,7.88,0,0,0,1.22-.81,4.53,4.53,0,0,1,1.73-1,1.87,1.87,0,0,1,1.34.2A1.77,1.77,0,0,1,268,141a6.15,6.15,0,0,1-.89,3,15.92,15.92,0,0,1-6.24,6.43A17.2,17.2,0,0,1,252,152.9q-4,0-5.69-2a8,8,0,0,1-1.71-5.41c0-.72,0-1.48.09-2.27s.14-1.59.24-2.41.23-1.62.37-2.41.31-1.54.49-2.28l1.22,3.51a16.71,16.71,0,0,1-3.85,7,19,19,0,0,1-6.55,4.64,19.94,19.94,0,0,1-8.07,1.64q-6.14,0-9.39-3.85t-2.3-11.56a31.63,31.63,0,0,1,2.23-8.25,32.56,32.56,0,0,1,4.6-7.73,31.55,31.55,0,0,1,6.94-6.41,33.85,33.85,0,0,1,9.26-4.38,39.29,39.29,0,0,1,11.51-1.6,51.93,51.93,0,0,1,10.29.84,14.8,14.8,0,0,1,5.89,2.25,3.31,3.31,0,0,1,1.59,3.17,3.1,3.1,0,0,1-1.09,2.21c-.58.43-1.18.85-1.8,1.27a3.87,3.87,0,0,0-1.35,2.26Zm-25.92,1.44c-.26,2.22-.18,3.75.25,4.6a1.89,1.89,0,0,0,1.68,1.27,4.08,4.08,0,0,0,2.47-1,13,13,0,0,0,2.61-2.89,30.8,30.8,0,0,0,2.54-4.46A42.92,42.92,0,0,0,247,129a53.89,53.89,0,0,0,1.6-6.86,11.48,11.48,0,0,0,.13-5,1.91,1.91,0,0,0-1.93-1.56,4.64,4.64,0,0,0-3,1.32,15,15,0,0,0-2.89,3.56,35.9,35.9,0,0,0-2.54,5.08,46.85,46.85,0,0,0-3.09,11.71Z" transform="translate(-1.82 -13.13)"/><path class="cls-1" d="M325.19,139.2a1.78,1.78,0,0,1,.9,1.62,6.23,6.23,0,0,1-.9,3,15.91,15.91,0,0,1-6.54,6.57,21.05,21.05,0,0,1-10.44,2.49,9.36,9.36,0,0,1-5.63-1.44,4.87,4.87,0,0,1-1.95-4.16,10,10,0,0,1,.77-3.59c.51-1.31,1.1-2.68,1.77-4.09s1.29-2.83,1.86-4.23a13.1,13.1,0,0,0,1-4l1.48.39a42.1,42.1,0,0,1-5.25,10.07,30,30,0,0,1-6.26,6.5,22.58,22.58,0,0,1-6.61,3.48A21.13,21.13,0,0,1,283,152.9q-4.2,0-6.32-1.86a7.08,7.08,0,0,1-2.33-5.12,19.08,19.08,0,0,1,1.3-7.46L280,126.24c.7-2,.95-3.36.74-4.14s-.6-1.16-1.18-1.16a2.39,2.39,0,0,0-1,.22,6.43,6.43,0,0,0-1.23.83,4.73,4.73,0,0,1-1.73,1,2,2,0,0,1-1.33-.15,1.78,1.78,0,0,1-.9-1.62,6,6,0,0,1,.9-3,15.92,15.92,0,0,1,6.45-6.57,20.37,20.37,0,0,1,10.27-2.5c2.95,0,5.11.57,6.5,1.69a6.07,6.07,0,0,1,2.21,4.71,18.81,18.81,0,0,1-1.31,7l-4.29,12.17a9.36,9.36,0,0,0-.86,4.36c.16,1,.83,1.47,2,1.47a4.59,4.59,0,0,0,2.38-.77,11.58,11.58,0,0,0,2.48-2.14,21.33,21.33,0,0,0,2.34-3.31,31.1,31.1,0,0,0,2-4.29c.56-1.4,1-2.66,1.4-3.76s.68-2.09.88-2.94a9.72,9.72,0,0,0,.31-2.19,6.9,6.9,0,0,0-.51-2.67,7.4,7.4,0,0,1-.5-2.8q0-3,3.76-4.77t10.56-1.8c3.21,0,5.15,1,5.84,3s.39,4.75-.9,8.19l-5.82,15.46c-.73,2-1,3.32-.77,4.11s.62,1.18,1.21,1.18a2.13,2.13,0,0,0,1-.24,8.39,8.39,0,0,0,1.23-.81,4.73,4.73,0,0,1,1.73-1A1.9,1.9,0,0,1,325.19,139.2Z" transform="translate(-1.82 -13.13)"/></g></g></svg>