<?xml version="1.0" standalone="no"?>
<!DOCTYPE svg PUBLIC "-//W3C//DTD SVG 20010904//EN"
 "http://www.w3.org/TR/2001/REC-SVG-20010904/DTD/svg10.dtd">
<svg version="1.0" xmlns="http://www.w3.org/2000/svg"
 width="150.000000pt" height="150.000000pt" viewBox="0 0 150.000000 150.000000"
 preserveAspectRatio="xMidYMid meet">
<metadata>
Created by potrace 1.14, written by Peter Selinger 2001-2017
</metadata>
<g transform="translate(0.000000,150.000000) scale(0.100000,-0.100000)"
fill="#000000" stroke="none">
<path d="M380 1306 c-57 -15 -110 -38 -110 -49 0 -5 -4 -6 -8 -3 -12 7 -114
-92 -146 -143 -71 -111 -82 -250 -31 -376 15 -38 34 -77 42 -85 7 -8 34 -44
59 -79 63 -87 82 -108 292 -317 101 -100 199 -190 219 -199 76 -37 119 -7 418
290 104 105 200 215 270 312 72 101 91 255 47 387 -88 264 -437 362 -651 183
l-34 -29 -33 35 c-64 66 -225 101 -334 73z"/>
</g>
</svg>
