<svg fill="none" height="75" viewBox="0 0 75 75" width="75" xmlns="http://www.w3.org/2000/svg"><circle cx="37.5" cy="37.5" fill="#535353" r="37.5"/><g fill="#fff" stroke="#fff" stroke-linecap="round" stroke-linejoin="round" stroke-width="2"><path d="m37 39c.5523 0 1-.6716 1-1.5s-.4477-1.5-1-1.5-1 .6716-1 1.5.4477 1.5 1 1.5z"/><path d="m37 28c.5523 0 1-.6716 1-1.5s-.4477-1.5-1-1.5-1 .6716-1 1.5.4477 1.5 1 1.5z"/><path d="m37 50c.5523 0 1-.6716 1-1.5s-.4477-1.5-1-1.5-1 .6716-1 1.5.4477 1.5 1 1.5z"/></g></svg>