<svg width="75" height="75" viewBox="0 0 75 75" fill="none" xmlns="http://www.w3.org/2000/svg">
<circle cx="37.5" cy="37.5" r="37.5" fill="#535353"/>
<rect x="21" y="28" width="32" height="22" rx="4" stroke="white" stroke-width="2"/>
<path d="M35.8818 41.165C35.8154 42.46 35.4502 43.4505 34.7861 44.1367C34.1276 44.8229 33.1951 45.166 31.9888 45.166C30.7769 45.166 29.814 44.7067 29.1001 43.7881C28.3862 42.8639 28.0293 41.6133 28.0293 40.0361V37.8447C28.0293 36.2731 28.3945 35.0308 29.125 34.1177C29.861 33.2046 30.8626 32.748 32.1299 32.748C33.2975 32.748 34.1995 33.0994 34.8359 33.8022C35.4779 34.4995 35.8265 35.4984 35.8818 36.7988H34.3462C34.2798 35.8138 34.0723 35.111 33.7236 34.6904C33.375 34.2699 32.8438 34.0596 32.1299 34.0596C31.3053 34.0596 30.6717 34.3833 30.229 35.0308C29.7863 35.6727 29.5649 36.6162 29.5649 37.8613V40.0776C29.5649 41.3006 29.7697 42.2386 30.1792 42.8916C30.5942 43.5446 31.1974 43.8711 31.9888 43.8711C32.7801 43.8711 33.3501 43.6746 33.6987 43.2817C34.0474 42.8888 34.2632 42.1833 34.3462 41.165H35.8818ZM45.5273 41.165C45.4609 42.46 45.0957 43.4505 44.4316 44.1367C43.7731 44.8229 42.8407 45.166 41.6343 45.166C40.4224 45.166 39.4595 44.7067 38.7456 43.7881C38.0317 42.8639 37.6748 41.6133 37.6748 40.0361V37.8447C37.6748 36.2731 38.04 35.0308 38.7705 34.1177C39.5065 33.2046 40.5081 32.748 41.7754 32.748C42.943 32.748 43.8451 33.0994 44.4814 33.8022C45.1234 34.4995 45.472 35.4984 45.5273 36.7988H43.9917C43.9253 35.8138 43.7178 35.111 43.3691 34.6904C43.0205 34.2699 42.4893 34.0596 41.7754 34.0596C40.9508 34.0596 40.3172 34.3833 39.8745 35.0308C39.4318 35.6727 39.2104 36.6162 39.2104 37.8613V40.0776C39.2104 41.3006 39.4152 42.2386 39.8247 42.8916C40.2397 43.5446 40.8429 43.8711 41.6343 43.8711C42.4256 43.8711 42.9956 43.6746 43.3442 43.2817C43.6929 42.8888 43.9087 42.1833 43.9917 41.165H45.5273Z" fill="white"/>
</svg>
