<svg width="75" height="75" viewBox="0 0 75 75" fill="none" xmlns="http://www.w3.org/2000/svg">
<circle cx="37.5" cy="37.5" r="37.5" fill="#535353"/>
<g clip-path="url(#clip0_2001_831)">
<path d="M45.6599 26.2946C45.1997 26.2946 44.763 26.3964 44.3701 26.5774C44.1036 25.1413 42.8423 24.0501 41.33 24.0501C40.855 24.0501 40.4048 24.158 40.0022 24.3502C39.6687 23.0024 38.4495 22 37.0001 22C35.5507 22 34.3316 23.0024 33.9981 24.3502C33.5955 24.158 33.1453 24.0501 32.6702 24.0501C30.9649 24.0501 29.5775 25.4375 29.5775 27.1429V34.703C29.1983 34.5368 28.7801 34.444 28.3403 34.444C26.635 34.444 25.2476 35.8314 25.2476 37.5368V43.8969C25.2476 48.3649 28.8826 52 33.3507 52H40.6496C45.1176 52 48.7527 48.3649 48.7527 43.8969V29.3874C48.7527 27.6819 47.3653 26.2946 45.6599 26.2946ZM46.897 43.8969C46.897 47.3417 44.0944 50.1443 40.6496 50.1443H33.3507C29.9058 50.1443 27.1032 47.3417 27.1032 43.8969V37.5368C27.1032 36.8546 27.6582 36.2997 28.3403 36.2997C29.0225 36.2997 29.5775 36.8546 29.5775 37.5368V42.4852H31.4331V27.1429C31.4331 26.4607 31.9881 25.9058 32.6702 25.9058C33.3524 25.9058 33.9074 26.4607 33.9074 27.1429V36.9182H35.763V25.0928C35.763 24.4106 36.318 23.8557 37.0001 23.8557C37.6823 23.8557 38.2373 24.4106 38.2373 25.0928V36.9182H40.0929V27.1429C40.0929 26.4607 40.6479 25.9058 41.33 25.9058C42.0122 25.9058 42.5671 26.4607 42.5671 27.1429V36.9182H44.4228V29.3873C44.4228 28.7052 44.9778 28.1502 45.6599 28.1502C46.3421 28.1502 46.897 28.7052 46.897 29.3873V43.8969Z" fill="white"/>
</g>
<defs>
<clipPath id="clip0_2001_831">
<rect width="30" height="30" fill="white" transform="translate(22 22)"/>
</clipPath>
</defs>
</svg>
