<svg width="113" height="75" viewBox="0 0 113 75" fill="none" xmlns="http://www.w3.org/2000/svg">
<rect width="113" height="75" rx="37.5" fill="#DC362E"/>
<path d="M37.5262 43.5491L33.6626 39.6854C33.3025 39.3282 33.0209 38.8997 32.836 38.4274C32.651 37.9551 32.5668 37.4493 32.5886 36.9425C32.6104 36.4358 32.7378 35.9391 32.9627 35.4844C33.1876 35.0298 33.5049 34.6271 33.8944 34.3021C38.2881 30.7697 43.449 28.3172 48.9626 27.1415C54.0517 26.0071 59.3281 26.0071 64.4171 27.1415C69.9535 28.3248 75.1333 30.7955 79.5368 34.3536C79.9252 34.6776 80.2418 35.0789 80.4665 35.5319C80.6913 35.9849 80.8192 36.4798 80.8422 36.985C80.8653 37.4901 80.7828 37.9946 80.6002 38.4662C80.4176 38.9378 80.1388 39.3662 79.7815 39.7241L75.9179 43.5877C75.299 44.2189 74.4718 44.6035 73.5903 44.6698C72.7089 44.7362 71.8334 44.4797 71.127 43.9483C69.7275 42.875 68.211 41.9633 66.6065 41.2309C65.9723 40.9432 65.4338 40.4797 65.0549 39.8954C64.676 39.3111 64.4725 38.6304 64.4687 37.9339V34.6627C59.411 33.2718 54.0717 33.2718 49.0141 34.6627V37.9339C49.0102 38.6304 48.8068 39.3111 48.4279 39.8954C48.0489 40.4797 47.5105 40.9432 46.8762 41.2309C45.2718 41.9633 43.7553 42.875 42.3558 43.9483C41.6419 44.4857 40.7555 44.7419 39.865 44.6683C38.9745 44.5947 38.1422 44.1964 37.5262 43.5491Z" fill="white"/>
</svg>
