<svg width="47" height="14" viewBox="0 0 47 14" fill="none" xmlns="http://www.w3.org/2000/svg">
<path d="M1.6925 0.91035L5.30322 11.1487H5.44575L9.05648 0.91035H10.6005L6.13464 13.0728H4.61434L0.148438 0.91035H1.6925Z" fill="black"/>
<path d="M12.3049 13.0728V3.95096H13.7065V13.0728H12.3049ZM13.0176 2.43066C12.7444 2.43066 12.5088 2.33762 12.3109 2.15154C12.1169 1.96546 12.0199 1.74177 12.0199 1.48046C12.0199 1.21916 12.1169 0.995471 12.3109 0.809392C12.5088 0.623313 12.7444 0.530273 13.0176 0.530273C13.2908 0.530273 13.5244 0.623313 13.7184 0.809392C13.9163 0.995471 14.0153 1.21916 14.0153 1.48046C14.0153 1.74177 13.9163 1.96546 13.7184 2.15154C13.5244 2.33762 13.2908 2.43066 13.0176 2.43066Z" fill="black"/>
<path d="M22.7348 5.99387L21.4758 6.35019C21.3966 6.14036 21.2798 5.93646 21.1254 5.73851C20.9749 5.53659 20.7691 5.37031 20.5078 5.23966C20.2465 5.10901 19.9119 5.04368 19.5041 5.04368C18.9459 5.04368 18.4807 5.17235 18.1085 5.4297C17.7403 5.68308 17.5562 6.00575 17.5562 6.3977C17.5562 6.74611 17.6829 7.02127 17.9363 7.22318C18.1897 7.4251 18.5856 7.59336 19.1241 7.72797L20.4781 8.06054C21.2937 8.25849 21.9014 8.56137 22.3013 8.96916C22.7011 9.37299 22.9011 9.89362 22.9011 10.531C22.9011 11.0536 22.7506 11.5208 22.4497 11.9326C22.1528 12.3443 21.7371 12.669 21.2026 12.9065C20.6681 13.1441 20.0465 13.2628 19.3378 13.2628C18.4074 13.2628 17.6374 13.0609 17.0277 12.6571C16.418 12.2533 16.032 11.6633 15.8696 10.8874L17.1999 10.5548C17.3266 11.0457 17.5661 11.4139 17.9185 11.6594C18.2748 11.9049 18.74 12.0276 19.3141 12.0276C19.9673 12.0276 20.486 11.889 20.87 11.6119C21.258 11.3308 21.452 10.9943 21.452 10.6023C21.452 10.2856 21.3412 10.0203 21.1195 9.80651C20.8977 9.58876 20.5573 9.42644 20.098 9.31954L18.5777 8.96322C17.7423 8.76526 17.1287 8.45843 16.7367 8.04272C16.3487 7.62305 16.1547 7.09847 16.1547 6.46897C16.1547 5.95428 16.2992 5.49898 16.5882 5.10307C16.8812 4.70716 17.2791 4.39636 17.7819 4.17069C18.2887 3.94502 18.8627 3.83219 19.5041 3.83219C20.4068 3.83219 21.1155 4.03014 21.6302 4.42606C22.1488 4.82197 22.517 5.34457 22.7348 5.99387Z" fill="black"/>
<path d="M25.0108 13.0728V3.95096H26.4123V13.0728H25.0108ZM25.7234 2.43066C25.4502 2.43066 25.2147 2.33762 25.0167 2.15154C24.8227 1.96546 24.7257 1.74177 24.7257 1.48046C24.7257 1.21916 24.8227 0.995471 25.0167 0.809392C25.2147 0.623313 25.4502 0.530273 25.7234 0.530273C25.9966 0.530273 26.2302 0.623313 26.4242 0.809392C26.6221 0.995471 26.7211 1.21916 26.7211 1.48046C26.7211 1.74177 26.6221 1.96546 26.4242 2.15154C26.2302 2.33762 25.9966 2.43066 25.7234 2.43066Z" fill="black"/>
<path d="M32.9464 3.95096V5.1387H28.2192V3.95096H32.9464ZM29.5969 1.76552H30.9985V10.4598C30.9985 10.8557 31.0559 11.1526 31.1707 11.3506C31.2895 11.5446 31.4399 11.6752 31.622 11.7425C31.8081 11.8059 32.0041 11.8375 32.21 11.8375C32.3644 11.8375 32.4911 11.8296 32.59 11.8138C32.689 11.794 32.7682 11.7782 32.8276 11.7663L33.1126 13.0253C33.0176 13.0609 32.885 13.0966 32.7148 13.1322C32.5445 13.1718 32.3287 13.1916 32.0674 13.1916C31.6715 13.1916 31.2835 13.1064 30.9035 12.9362C30.5273 12.766 30.2146 12.5066 29.9651 12.1582C29.7197 11.8098 29.5969 11.3704 29.5969 10.8398V1.76552Z" fill="black"/>
<path d="M39.4445 0.660924L46.9748 0.660924V8.17931L45.692 8.19119L45.692 2.87012L38.7912 9.759L37.8648 8.83257L44.7656 1.94368L39.4445 1.95556V0.660924Z" fill="black"/>
</svg>
