<svg width="458" height="100" viewBox="0 0 458 100" fill="none" xmlns="http://www.w3.org/2000/svg">
<path d="M67.2916 6.30304L48.3864 68.2198L29.4811 6.30305C28.7747 3.98958 26.6398 2.40918 24.2208 2.40918H7.57115C3.80862 2.40918 1.15693 6.10243 2.35979 9.6675L31.0697 94.7584C31.8241 96.9945 33.9211 98.5001 36.281 98.5001H60.4917C62.8517 98.5001 64.9486 96.9945 65.7031 94.7584L94.4129 9.66751C95.6158 6.10243 92.9641 2.40918 89.2016 2.40918H72.5519C70.133 2.40918 67.998 3.98957 67.2916 6.30304ZM109.695 7.90919V93.0001C109.695 96.0377 112.158 98.5001 115.195 98.5001H172.105C175.142 98.5001 177.605 96.0377 177.605 93.0001V82.7274C177.605 79.6898 175.142 77.2274 172.105 77.2274H137.695C136.315 77.2274 135.195 76.1081 135.195 74.7274V63.591C135.195 62.2103 136.315 61.091 137.695 61.091H168.786C171.824 61.091 174.286 58.6286 174.286 55.591V45.2728C174.286 42.2353 171.824 39.7728 168.786 39.7728H137.695C136.315 39.7728 135.195 38.6535 135.195 37.2728V26.1819C135.195 24.8012 136.315 23.6819 137.695 23.6819H172.105C175.142 23.6819 177.605 21.2195 177.605 18.1819V7.90918C177.605 4.87161 175.142 2.40918 172.105 2.40918H115.195C112.158 2.40918 109.695 4.87162 109.695 7.90919ZM277.323 93.0001V7.90918C277.323 4.87161 274.86 2.40918 271.823 2.40918H257.368C254.331 2.40918 251.868 4.87161 251.868 7.90918V53.8214L218.389 4.80701C217.364 3.3066 215.664 2.40918 213.847 2.40918H200.595C197.558 2.40918 195.095 4.87162 195.095 7.90919V93.0001C195.095 96.0377 197.558 98.5001 200.595 98.5001H215.095C218.133 98.5001 220.595 96.0377 220.595 93.0001V47.2337L254.304 96.1222C255.331 97.611 257.024 98.5001 258.832 98.5001H271.823C274.86 98.5001 277.323 96.0377 277.323 93.0001ZM291.825 7.90918V18.1819C291.825 21.2195 294.287 23.6819 297.325 23.6819H317.598C318.978 23.6819 320.098 24.8012 320.098 26.1819V93.0001C320.098 96.0377 322.56 98.5001 325.598 98.5001H339.78C342.817 98.5001 345.28 96.0377 345.28 93.0001V26.1819C345.28 24.8012 346.399 23.6819 347.78 23.6819H368.007C371.044 23.6819 373.507 21.2195 373.507 18.1819V7.90918C373.507 4.87161 371.044 2.40918 368.007 2.40918H297.325C294.287 2.40918 291.825 4.87162 291.825 7.90918ZM387.895 7.90919V93.0001C387.895 96.0377 390.358 98.5001 393.395 98.5001H450.305C453.342 98.5001 455.805 96.0377 455.805 93.0001V82.7274C455.805 79.6898 453.342 77.2274 450.305 77.2274H415.895C414.515 77.2274 413.395 76.1081 413.395 74.7274V63.591C413.395 62.2103 414.515 61.091 415.895 61.091H446.986C450.024 61.091 452.486 58.6286 452.486 55.591V45.2728C452.486 42.2352 450.024 39.7728 446.986 39.7728H415.895C414.515 39.7728 413.395 38.6535 413.395 37.2728V26.1819C413.395 24.8012 414.515 23.6819 415.895 23.6819H450.305C453.342 23.6819 455.805 21.2195 455.805 18.1819V7.90918C455.805 4.87161 453.342 2.40918 450.305 2.40918H393.395C390.358 2.40918 387.895 4.87162 387.895 7.90919Z" fill="black" stroke="black" stroke-width="3"/>
</svg>
