<svg width="675" height="103" viewBox="0 0 675 103" fill="none" xmlns="http://www.w3.org/2000/svg">
<mask id="path-1-outside-1_833_38377" maskUnits="userSpaceOnUse" x="0.0454102" y="0.63623" width="675" height="102" fill="black">
<rect fill="white" x="0.0454102" y="0.63623" width="675" height="102"/>
<path d="M37.4545 97.9999H7.04541C4.83627 97.9999 3.04541 96.209 3.04541 93.9999V8.90896C3.04541 6.69983 4.83627 4.90896 7.04541 4.90896H37.409C46.8939 4.90896 55.0606 6.7726 61.909 10.4999C68.7878 14.1968 74.0909 19.5302 77.8181 26.4999C81.5454 33.4393 83.409 41.7423 83.409 51.409C83.409 61.1059 81.5454 69.4393 77.8181 76.409C74.1212 83.3787 68.8333 88.7271 61.9545 92.4544C55.0757 96.1514 46.909 97.9999 37.4545 97.9999ZM25.5454 74.8181C25.5454 77.0272 27.3363 78.8181 29.5454 78.8181H36.5909C41.803 78.8181 46.2121 77.9393 49.8181 76.1817C53.4545 74.3938 56.1969 71.4999 58.0454 67.4999C59.9242 63.4696 60.8636 58.1059 60.8636 51.409C60.8636 44.712 59.9242 39.3787 58.0454 35.409C56.1666 31.409 53.3939 28.5302 49.7272 26.7726C46.0909 24.9847 41.606 24.0908 36.2727 24.0908H29.5454C27.3363 24.0908 25.5454 25.8816 25.5454 28.0908V74.8181Z"/>
<path d="M117.445 4.90896C119.655 4.90896 121.445 6.69982 121.445 8.90896V15.2726C121.445 18.1514 120.87 21.0605 119.718 23.9999C118.597 26.909 117.127 29.6362 115.309 32.1817C114.104 33.869 112.852 35.3831 111.554 36.7242C110.391 37.9252 108.564 38.1033 107.098 37.2999L103.743 35.4612C101.747 34.3671 101.077 31.8325 102.061 29.7798C102.682 28.4856 103.264 27.1195 103.809 25.6817C104.9 22.7726 105.445 19.318 105.445 15.318V8.90896C105.445 6.69982 107.236 4.90896 109.445 4.90896H117.445Z"/>
<path d="M228.209 51.4544C228.209 61.6968 226.239 70.3787 222.3 77.4999C218.361 84.6211 213.027 90.0302 206.3 93.7271C199.603 97.4241 192.088 99.2726 183.755 99.2726C175.391 99.2726 167.861 97.409 161.164 93.6817C154.467 89.9544 149.148 84.5453 145.209 77.4544C141.3 70.3332 139.345 61.6665 139.345 51.4544C139.345 41.212 141.3 32.5302 145.209 25.409C149.148 18.2877 154.467 12.8787 161.164 9.18169C167.861 5.48472 175.391 3.63623 183.755 3.63623C192.088 3.63623 199.603 5.48472 206.3 9.18169C213.027 12.8787 218.361 18.2877 222.3 25.409C226.239 32.5302 228.209 41.212 228.209 51.4544ZM205.209 51.4544C205.209 45.3938 204.345 40.2726 202.618 36.0908C200.921 31.909 198.467 28.7423 195.255 26.5908C192.073 24.4393 188.239 23.3635 183.755 23.3635C179.3 23.3635 175.467 24.4393 172.255 26.5908C169.042 28.7423 166.573 31.909 164.845 36.0908C163.148 40.2726 162.3 45.3938 162.3 51.4544C162.3 57.515 163.148 62.6362 164.845 66.8181C166.573 70.9999 169.042 74.1665 172.255 76.3181C175.467 78.4696 179.3 79.5453 183.755 79.5453C188.239 79.5453 192.073 78.4696 195.255 76.3181C198.467 74.1665 200.921 70.9999 202.618 66.8181C204.345 62.6362 205.209 57.515 205.209 51.4544Z"/>
<path d="M251.745 97.9999C249.536 97.9999 247.745 96.209 247.745 93.9999V8.90896C247.745 6.69983 249.536 4.90896 251.745 4.90896H286.564C293.533 4.90896 299.367 5.89381 304.064 7.8635C308.791 9.8332 312.336 12.5908 314.7 16.1362C317.094 19.6817 318.291 23.7877 318.291 28.4544C318.291 31.9999 317.548 35.1665 316.064 37.9544C314.579 40.712 312.533 42.9999 309.927 44.8181C307.425 46.5637 304.546 47.8065 301.29 48.5465C301.052 48.6005 300.882 48.8104 300.882 49.0539V49.0539C300.882 49.3291 301.098 49.5552 301.372 49.5739C304.942 49.8174 308.248 50.823 311.291 52.5908C314.503 54.4393 317.079 57.015 319.018 60.3181C320.958 63.5908 321.927 67.4696 321.927 71.9544C321.927 76.9544 320.654 81.4241 318.109 85.3635C315.564 89.2726 311.882 92.3635 307.064 94.6362C302.245 96.8787 296.397 97.9999 289.518 97.9999H251.745ZM270.245 75.8635C270.245 78.0726 272.036 79.8635 274.245 79.8635H284.155C289.033 79.8635 292.624 78.9393 294.927 77.0908C297.261 75.2423 298.427 72.6665 298.427 69.3635C298.427 66.9696 297.867 64.909 296.745 63.1817C295.624 61.4241 294.033 60.0756 291.973 59.1362C289.912 58.1665 287.442 57.6817 284.564 57.6817H274.245C272.036 57.6817 270.245 59.4725 270.245 61.6817V75.8635ZM270.245 39.1817C270.245 41.3908 272.036 43.1817 274.245 43.1817H282.7C285.154 43.1817 287.336 42.7726 289.245 41.9544C291.155 41.1362 292.639 39.9544 293.7 38.409C294.791 36.8635 295.336 34.9999 295.336 32.818C295.336 29.6968 294.23 27.2423 292.018 25.4544C289.806 23.6665 286.821 22.7726 283.064 22.7726H274.245C272.036 22.7726 270.245 24.5635 270.245 26.7726V39.1817Z"/>
<path d="M376.964 8.90896C376.964 6.69982 378.754 4.90896 380.964 4.90896H395.145C397.355 4.90896 399.145 6.69982 399.145 8.90896V69.2726C399.115 75.3029 397.676 80.5756 394.827 85.0908C391.979 89.5756 388.039 93.0605 383.009 95.5453C378.009 98.0302 372.221 99.2726 365.645 99.2726C359.827 99.2726 354.539 98.2574 349.782 96.2271C345.054 94.1968 341.282 91.0453 338.464 86.7726C336.252 83.3824 334.927 79.2387 334.489 74.3414C334.293 72.1481 336.107 70.3635 338.309 70.3635H352.885C355.035 70.3635 356.724 72.0893 357.26 74.1715C357.476 75.0094 357.756 75.7855 358.1 76.4999C358.948 78.1665 360.115 79.4241 361.6 80.2726C363.085 81.1211 364.858 81.5453 366.918 81.5453C369.07 81.5453 370.888 81.0908 372.373 80.1817C373.858 79.2423 374.979 77.8635 375.736 76.0453C376.524 74.2271 376.933 71.9696 376.964 69.2726V8.90896Z"/>
<path d="M423.67 97.9999C421.461 97.9999 419.67 96.209 419.67 93.9999V8.90896C419.67 6.69983 421.461 4.90896 423.67 4.90896H480.579C482.789 4.90896 484.579 6.69982 484.579 8.90896V19.1817C484.579 21.3908 482.789 23.1817 480.579 23.1817H446.17C443.961 23.1817 442.17 24.9725 442.17 27.1817V38.2726C442.17 40.4817 443.961 42.2726 446.17 42.2726H477.261C479.47 42.2726 481.261 44.0635 481.261 46.2726V56.5908C481.261 58.7999 479.47 60.5908 477.261 60.5908H446.17C443.961 60.5908 442.17 62.3816 442.17 64.5908V75.7271C442.17 77.9363 443.961 79.7271 446.17 79.7271H480.579C482.789 79.7271 484.579 81.518 484.579 83.7271V93.9999C484.579 96.209 482.789 97.9999 480.579 97.9999H423.67Z"/>
<path d="M506.025 23.1817C503.816 23.1817 502.025 21.3908 502.025 19.1817V8.90896C502.025 6.69982 503.816 4.90896 506.025 4.90896H576.707C578.916 4.90896 580.707 6.69982 580.707 8.90896V19.1817C580.707 21.3908 578.916 23.1817 576.707 23.1817H556.479C554.27 23.1817 552.479 24.9725 552.479 27.1817V93.9999C552.479 96.209 550.689 97.9999 548.479 97.9999H534.298C532.089 97.9999 530.298 96.209 530.298 93.9999V27.1817C530.298 24.9726 528.507 23.1817 526.298 23.1817H506.025Z"/>
<path d="M652.066 32.818C649.998 32.818 648.364 31.1908 647.588 29.2728C646.906 27.5856 645.833 26.1765 644.368 25.0453C642.004 23.1665 638.626 22.2271 634.232 22.2271C631.323 22.2271 628.898 22.6059 626.959 23.3635C625.02 24.1211 623.565 25.1665 622.595 26.4999C621.626 27.8029 621.126 29.3029 621.095 30.9999C621.035 32.3938 621.308 33.6211 621.914 34.6817C622.55 35.7423 623.459 36.6817 624.641 37.4999C625.853 38.2877 627.308 38.9847 629.005 39.5908C630.701 40.1968 632.611 40.7271 634.732 41.1817L642.732 42.9999C647.338 43.9999 651.398 45.3332 654.914 46.9999C658.459 48.6665 661.429 50.6514 663.823 52.9544C666.247 55.2574 668.08 57.909 669.323 60.909C670.565 63.909 671.201 67.2726 671.232 70.9999C671.201 76.8787 669.717 81.9241 666.777 86.1362C663.838 90.3484 659.611 93.5756 654.095 95.8181C648.611 98.0605 641.989 99.1817 634.232 99.1817C626.444 99.1817 619.656 98.015 613.868 95.6817C608.08 93.3484 603.58 89.8029 600.368 85.0453C597.772 81.1996 596.195 76.5322 595.638 71.043C595.413 68.8257 597.235 66.9999 599.464 66.9999H613.194C615.309 66.9999 616.986 68.6745 617.571 70.7073C617.978 72.1256 618.578 73.3897 619.368 74.4999C620.792 76.4999 622.747 78.015 625.232 79.0453C627.747 80.0756 630.656 80.5908 633.959 80.5908C636.989 80.5908 639.565 80.1817 641.686 79.3635C643.838 78.5453 645.489 77.409 646.641 75.9544C647.792 74.4999 648.383 72.8332 648.414 70.9544C648.383 69.1968 647.838 67.6968 646.777 66.4544C645.717 65.1817 644.08 64.0908 641.868 63.1817C639.686 62.2423 636.898 61.3787 633.505 60.5908L623.777 58.3181C615.717 56.4696 609.368 53.4847 604.732 49.3635C600.095 45.212 597.792 39.6059 597.823 32.5453C597.792 26.7877 599.338 21.7423 602.459 17.409C605.58 13.0756 609.898 9.69684 615.414 7.2726C620.929 4.84835 627.217 3.63623 634.277 3.63623C641.489 3.63623 647.747 4.8635 653.05 7.31805C658.383 9.74229 662.52 13.1514 665.459 17.5453C667.696 20.8894 669.099 24.6372 669.669 28.7887C669.972 30.9935 668.142 32.818 665.917 32.818H652.066Z"/>
</mask>
<path d="M37.4545 97.9999H7.04541C4.83627 97.9999 3.04541 96.209 3.04541 93.9999V8.90896C3.04541 6.69983 4.83627 4.90896 7.04541 4.90896H37.409C46.8939 4.90896 55.0606 6.7726 61.909 10.4999C68.7878 14.1968 74.0909 19.5302 77.8181 26.4999C81.5454 33.4393 83.409 41.7423 83.409 51.409C83.409 61.1059 81.5454 69.4393 77.8181 76.409C74.1212 83.3787 68.8333 88.7271 61.9545 92.4544C55.0757 96.1514 46.909 97.9999 37.4545 97.9999ZM25.5454 74.8181C25.5454 77.0272 27.3363 78.8181 29.5454 78.8181H36.5909C41.803 78.8181 46.2121 77.9393 49.8181 76.1817C53.4545 74.3938 56.1969 71.4999 58.0454 67.4999C59.9242 63.4696 60.8636 58.1059 60.8636 51.409C60.8636 44.712 59.9242 39.3787 58.0454 35.409C56.1666 31.409 53.3939 28.5302 49.7272 26.7726C46.0909 24.9847 41.606 24.0908 36.2727 24.0908H29.5454C27.3363 24.0908 25.5454 25.8816 25.5454 28.0908V74.8181Z" fill="white"/>
<path d="M117.445 4.90896C119.655 4.90896 121.445 6.69982 121.445 8.90896V15.2726C121.445 18.1514 120.87 21.0605 119.718 23.9999C118.597 26.909 117.127 29.6362 115.309 32.1817C114.104 33.869 112.852 35.3831 111.554 36.7242C110.391 37.9252 108.564 38.1033 107.098 37.2999L103.743 35.4612C101.747 34.3671 101.077 31.8325 102.061 29.7798C102.682 28.4856 103.264 27.1195 103.809 25.6817C104.9 22.7726 105.445 19.318 105.445 15.318V8.90896C105.445 6.69982 107.236 4.90896 109.445 4.90896H117.445Z" fill="white"/>
<path d="M228.209 51.4544C228.209 61.6968 226.239 70.3787 222.3 77.4999C218.361 84.6211 213.027 90.0302 206.3 93.7271C199.603 97.4241 192.088 99.2726 183.755 99.2726C175.391 99.2726 167.861 97.409 161.164 93.6817C154.467 89.9544 149.148 84.5453 145.209 77.4544C141.3 70.3332 139.345 61.6665 139.345 51.4544C139.345 41.212 141.3 32.5302 145.209 25.409C149.148 18.2877 154.467 12.8787 161.164 9.18169C167.861 5.48472 175.391 3.63623 183.755 3.63623C192.088 3.63623 199.603 5.48472 206.3 9.18169C213.027 12.8787 218.361 18.2877 222.3 25.409C226.239 32.5302 228.209 41.212 228.209 51.4544ZM205.209 51.4544C205.209 45.3938 204.345 40.2726 202.618 36.0908C200.921 31.909 198.467 28.7423 195.255 26.5908C192.073 24.4393 188.239 23.3635 183.755 23.3635C179.3 23.3635 175.467 24.4393 172.255 26.5908C169.042 28.7423 166.573 31.909 164.845 36.0908C163.148 40.2726 162.3 45.3938 162.3 51.4544C162.3 57.515 163.148 62.6362 164.845 66.8181C166.573 70.9999 169.042 74.1665 172.255 76.3181C175.467 78.4696 179.3 79.5453 183.755 79.5453C188.239 79.5453 192.073 78.4696 195.255 76.3181C198.467 74.1665 200.921 70.9999 202.618 66.8181C204.345 62.6362 205.209 57.515 205.209 51.4544Z" fill="white"/>
<path d="M251.745 97.9999C249.536 97.9999 247.745 96.209 247.745 93.9999V8.90896C247.745 6.69983 249.536 4.90896 251.745 4.90896H286.564C293.533 4.90896 299.367 5.89381 304.064 7.8635C308.791 9.8332 312.336 12.5908 314.7 16.1362C317.094 19.6817 318.291 23.7877 318.291 28.4544C318.291 31.9999 317.548 35.1665 316.064 37.9544C314.579 40.712 312.533 42.9999 309.927 44.8181C307.425 46.5637 304.546 47.8065 301.29 48.5465C301.052 48.6005 300.882 48.8104 300.882 49.0539V49.0539C300.882 49.3291 301.098 49.5552 301.372 49.5739C304.942 49.8174 308.248 50.823 311.291 52.5908C314.503 54.4393 317.079 57.015 319.018 60.3181C320.958 63.5908 321.927 67.4696 321.927 71.9544C321.927 76.9544 320.654 81.4241 318.109 85.3635C315.564 89.2726 311.882 92.3635 307.064 94.6362C302.245 96.8787 296.397 97.9999 289.518 97.9999H251.745ZM270.245 75.8635C270.245 78.0726 272.036 79.8635 274.245 79.8635H284.155C289.033 79.8635 292.624 78.9393 294.927 77.0908C297.261 75.2423 298.427 72.6665 298.427 69.3635C298.427 66.9696 297.867 64.909 296.745 63.1817C295.624 61.4241 294.033 60.0756 291.973 59.1362C289.912 58.1665 287.442 57.6817 284.564 57.6817H274.245C272.036 57.6817 270.245 59.4725 270.245 61.6817V75.8635ZM270.245 39.1817C270.245 41.3908 272.036 43.1817 274.245 43.1817H282.7C285.154 43.1817 287.336 42.7726 289.245 41.9544C291.155 41.1362 292.639 39.9544 293.7 38.409C294.791 36.8635 295.336 34.9999 295.336 32.818C295.336 29.6968 294.23 27.2423 292.018 25.4544C289.806 23.6665 286.821 22.7726 283.064 22.7726H274.245C272.036 22.7726 270.245 24.5635 270.245 26.7726V39.1817Z" fill="white"/>
<path d="M376.964 8.90896C376.964 6.69982 378.754 4.90896 380.964 4.90896H395.145C397.355 4.90896 399.145 6.69982 399.145 8.90896V69.2726C399.115 75.3029 397.676 80.5756 394.827 85.0908C391.979 89.5756 388.039 93.0605 383.009 95.5453C378.009 98.0302 372.221 99.2726 365.645 99.2726C359.827 99.2726 354.539 98.2574 349.782 96.2271C345.054 94.1968 341.282 91.0453 338.464 86.7726C336.252 83.3824 334.927 79.2387 334.489 74.3414C334.293 72.1481 336.107 70.3635 338.309 70.3635H352.885C355.035 70.3635 356.724 72.0893 357.26 74.1715C357.476 75.0094 357.756 75.7855 358.1 76.4999C358.948 78.1665 360.115 79.4241 361.6 80.2726C363.085 81.1211 364.858 81.5453 366.918 81.5453C369.07 81.5453 370.888 81.0908 372.373 80.1817C373.858 79.2423 374.979 77.8635 375.736 76.0453C376.524 74.2271 376.933 71.9696 376.964 69.2726V8.90896Z" fill="white"/>
<path d="M423.67 97.9999C421.461 97.9999 419.67 96.209 419.67 93.9999V8.90896C419.67 6.69983 421.461 4.90896 423.67 4.90896H480.579C482.789 4.90896 484.579 6.69982 484.579 8.90896V19.1817C484.579 21.3908 482.789 23.1817 480.579 23.1817H446.17C443.961 23.1817 442.17 24.9725 442.17 27.1817V38.2726C442.17 40.4817 443.961 42.2726 446.17 42.2726H477.261C479.47 42.2726 481.261 44.0635 481.261 46.2726V56.5908C481.261 58.7999 479.47 60.5908 477.261 60.5908H446.17C443.961 60.5908 442.17 62.3816 442.17 64.5908V75.7271C442.17 77.9363 443.961 79.7271 446.17 79.7271H480.579C482.789 79.7271 484.579 81.518 484.579 83.7271V93.9999C484.579 96.209 482.789 97.9999 480.579 97.9999H423.67Z" fill="white"/>
<path d="M506.025 23.1817C503.816 23.1817 502.025 21.3908 502.025 19.1817V8.90896C502.025 6.69982 503.816 4.90896 506.025 4.90896H576.707C578.916 4.90896 580.707 6.69982 580.707 8.90896V19.1817C580.707 21.3908 578.916 23.1817 576.707 23.1817H556.479C554.27 23.1817 552.479 24.9725 552.479 27.1817V93.9999C552.479 96.209 550.689 97.9999 548.479 97.9999H534.298C532.089 97.9999 530.298 96.209 530.298 93.9999V27.1817C530.298 24.9726 528.507 23.1817 526.298 23.1817H506.025Z" fill="white"/>
<path d="M652.066 32.818C649.998 32.818 648.364 31.1908 647.588 29.2728C646.906 27.5856 645.833 26.1765 644.368 25.0453C642.004 23.1665 638.626 22.2271 634.232 22.2271C631.323 22.2271 628.898 22.6059 626.959 23.3635C625.02 24.1211 623.565 25.1665 622.595 26.4999C621.626 27.8029 621.126 29.3029 621.095 30.9999C621.035 32.3938 621.308 33.6211 621.914 34.6817C622.55 35.7423 623.459 36.6817 624.641 37.4999C625.853 38.2877 627.308 38.9847 629.005 39.5908C630.701 40.1968 632.611 40.7271 634.732 41.1817L642.732 42.9999C647.338 43.9999 651.398 45.3332 654.914 46.9999C658.459 48.6665 661.429 50.6514 663.823 52.9544C666.247 55.2574 668.08 57.909 669.323 60.909C670.565 63.909 671.201 67.2726 671.232 70.9999C671.201 76.8787 669.717 81.9241 666.777 86.1362C663.838 90.3484 659.611 93.5756 654.095 95.8181C648.611 98.0605 641.989 99.1817 634.232 99.1817C626.444 99.1817 619.656 98.015 613.868 95.6817C608.08 93.3484 603.58 89.8029 600.368 85.0453C597.772 81.1996 596.195 76.5322 595.638 71.043C595.413 68.8257 597.235 66.9999 599.464 66.9999H613.194C615.309 66.9999 616.986 68.6745 617.571 70.7073C617.978 72.1256 618.578 73.3897 619.368 74.4999C620.792 76.4999 622.747 78.015 625.232 79.0453C627.747 80.0756 630.656 80.5908 633.959 80.5908C636.989 80.5908 639.565 80.1817 641.686 79.3635C643.838 78.5453 645.489 77.409 646.641 75.9544C647.792 74.4999 648.383 72.8332 648.414 70.9544C648.383 69.1968 647.838 67.6968 646.777 66.4544C645.717 65.1817 644.08 64.0908 641.868 63.1817C639.686 62.2423 636.898 61.3787 633.505 60.5908L623.777 58.3181C615.717 56.4696 609.368 53.4847 604.732 49.3635C600.095 45.212 597.792 39.6059 597.823 32.5453C597.792 26.7877 599.338 21.7423 602.459 17.409C605.58 13.0756 609.898 9.69684 615.414 7.2726C620.929 4.84835 627.217 3.63623 634.277 3.63623C641.489 3.63623 647.747 4.8635 653.05 7.31805C658.383 9.74229 662.52 13.1514 665.459 17.5453C667.696 20.8894 669.099 24.6372 669.669 28.7887C669.972 30.9935 668.142 32.818 665.917 32.818H652.066Z" fill="white"/>
<path d="M37.4545 97.9999H7.04541C4.83627 97.9999 3.04541 96.209 3.04541 93.9999V8.90896C3.04541 6.69983 4.83627 4.90896 7.04541 4.90896H37.409C46.8939 4.90896 55.0606 6.7726 61.909 10.4999C68.7878 14.1968 74.0909 19.5302 77.8181 26.4999C81.5454 33.4393 83.409 41.7423 83.409 51.409C83.409 61.1059 81.5454 69.4393 77.8181 76.409C74.1212 83.3787 68.8333 88.7271 61.9545 92.4544C55.0757 96.1514 46.909 97.9999 37.4545 97.9999ZM25.5454 74.8181C25.5454 77.0272 27.3363 78.8181 29.5454 78.8181H36.5909C41.803 78.8181 46.2121 77.9393 49.8181 76.1817C53.4545 74.3938 56.1969 71.4999 58.0454 67.4999C59.9242 63.4696 60.8636 58.1059 60.8636 51.409C60.8636 44.712 59.9242 39.3787 58.0454 35.409C56.1666 31.409 53.3939 28.5302 49.7272 26.7726C46.0909 24.9847 41.606 24.0908 36.2727 24.0908H29.5454C27.3363 24.0908 25.5454 25.8816 25.5454 28.0908V74.8181Z" stroke="black" stroke-width="6" mask="url(#path-1-outside-1_833_38377)"/>
<path d="M117.445 4.90896C119.655 4.90896 121.445 6.69982 121.445 8.90896V15.2726C121.445 18.1514 120.87 21.0605 119.718 23.9999C118.597 26.909 117.127 29.6362 115.309 32.1817C114.104 33.869 112.852 35.3831 111.554 36.7242C110.391 37.9252 108.564 38.1033 107.098 37.2999L103.743 35.4612C101.747 34.3671 101.077 31.8325 102.061 29.7798C102.682 28.4856 103.264 27.1195 103.809 25.6817C104.9 22.7726 105.445 19.318 105.445 15.318V8.90896C105.445 6.69982 107.236 4.90896 109.445 4.90896H117.445Z" stroke="black" stroke-width="6" mask="url(#path-1-outside-1_833_38377)"/>
<path d="M228.209 51.4544C228.209 61.6968 226.239 70.3787 222.3 77.4999C218.361 84.6211 213.027 90.0302 206.3 93.7271C199.603 97.4241 192.088 99.2726 183.755 99.2726C175.391 99.2726 167.861 97.409 161.164 93.6817C154.467 89.9544 149.148 84.5453 145.209 77.4544C141.3 70.3332 139.345 61.6665 139.345 51.4544C139.345 41.212 141.3 32.5302 145.209 25.409C149.148 18.2877 154.467 12.8787 161.164 9.18169C167.861 5.48472 175.391 3.63623 183.755 3.63623C192.088 3.63623 199.603 5.48472 206.3 9.18169C213.027 12.8787 218.361 18.2877 222.3 25.409C226.239 32.5302 228.209 41.212 228.209 51.4544ZM205.209 51.4544C205.209 45.3938 204.345 40.2726 202.618 36.0908C200.921 31.909 198.467 28.7423 195.255 26.5908C192.073 24.4393 188.239 23.3635 183.755 23.3635C179.3 23.3635 175.467 24.4393 172.255 26.5908C169.042 28.7423 166.573 31.909 164.845 36.0908C163.148 40.2726 162.3 45.3938 162.3 51.4544C162.3 57.515 163.148 62.6362 164.845 66.8181C166.573 70.9999 169.042 74.1665 172.255 76.3181C175.467 78.4696 179.3 79.5453 183.755 79.5453C188.239 79.5453 192.073 78.4696 195.255 76.3181C198.467 74.1665 200.921 70.9999 202.618 66.8181C204.345 62.6362 205.209 57.515 205.209 51.4544Z" stroke="black" stroke-width="6" mask="url(#path-1-outside-1_833_38377)"/>
<path d="M251.745 97.9999C249.536 97.9999 247.745 96.209 247.745 93.9999V8.90896C247.745 6.69983 249.536 4.90896 251.745 4.90896H286.564C293.533 4.90896 299.367 5.89381 304.064 7.8635C308.791 9.8332 312.336 12.5908 314.7 16.1362C317.094 19.6817 318.291 23.7877 318.291 28.4544C318.291 31.9999 317.548 35.1665 316.064 37.9544C314.579 40.712 312.533 42.9999 309.927 44.8181C307.425 46.5637 304.546 47.8065 301.29 48.5465C301.052 48.6005 300.882 48.8104 300.882 49.0539V49.0539C300.882 49.3291 301.098 49.5552 301.372 49.5739C304.942 49.8174 308.248 50.823 311.291 52.5908C314.503 54.4393 317.079 57.015 319.018 60.3181C320.958 63.5908 321.927 67.4696 321.927 71.9544C321.927 76.9544 320.654 81.4241 318.109 85.3635C315.564 89.2726 311.882 92.3635 307.064 94.6362C302.245 96.8787 296.397 97.9999 289.518 97.9999H251.745ZM270.245 75.8635C270.245 78.0726 272.036 79.8635 274.245 79.8635H284.155C289.033 79.8635 292.624 78.9393 294.927 77.0908C297.261 75.2423 298.427 72.6665 298.427 69.3635C298.427 66.9696 297.867 64.909 296.745 63.1817C295.624 61.4241 294.033 60.0756 291.973 59.1362C289.912 58.1665 287.442 57.6817 284.564 57.6817H274.245C272.036 57.6817 270.245 59.4725 270.245 61.6817V75.8635ZM270.245 39.1817C270.245 41.3908 272.036 43.1817 274.245 43.1817H282.7C285.154 43.1817 287.336 42.7726 289.245 41.9544C291.155 41.1362 292.639 39.9544 293.7 38.409C294.791 36.8635 295.336 34.9999 295.336 32.818C295.336 29.6968 294.23 27.2423 292.018 25.4544C289.806 23.6665 286.821 22.7726 283.064 22.7726H274.245C272.036 22.7726 270.245 24.5635 270.245 26.7726V39.1817Z" stroke="black" stroke-width="6" mask="url(#path-1-outside-1_833_38377)"/>
<path d="M376.964 8.90896C376.964 6.69982 378.754 4.90896 380.964 4.90896H395.145C397.355 4.90896 399.145 6.69982 399.145 8.90896V69.2726C399.115 75.3029 397.676 80.5756 394.827 85.0908C391.979 89.5756 388.039 93.0605 383.009 95.5453C378.009 98.0302 372.221 99.2726 365.645 99.2726C359.827 99.2726 354.539 98.2574 349.782 96.2271C345.054 94.1968 341.282 91.0453 338.464 86.7726C336.252 83.3824 334.927 79.2387 334.489 74.3414C334.293 72.1481 336.107 70.3635 338.309 70.3635H352.885C355.035 70.3635 356.724 72.0893 357.26 74.1715C357.476 75.0094 357.756 75.7855 358.1 76.4999C358.948 78.1665 360.115 79.4241 361.6 80.2726C363.085 81.1211 364.858 81.5453 366.918 81.5453C369.07 81.5453 370.888 81.0908 372.373 80.1817C373.858 79.2423 374.979 77.8635 375.736 76.0453C376.524 74.2271 376.933 71.9696 376.964 69.2726V8.90896Z" stroke="black" stroke-width="6" mask="url(#path-1-outside-1_833_38377)"/>
<path d="M423.67 97.9999C421.461 97.9999 419.67 96.209 419.67 93.9999V8.90896C419.67 6.69983 421.461 4.90896 423.67 4.90896H480.579C482.789 4.90896 484.579 6.69982 484.579 8.90896V19.1817C484.579 21.3908 482.789 23.1817 480.579 23.1817H446.17C443.961 23.1817 442.17 24.9725 442.17 27.1817V38.2726C442.17 40.4817 443.961 42.2726 446.17 42.2726H477.261C479.47 42.2726 481.261 44.0635 481.261 46.2726V56.5908C481.261 58.7999 479.47 60.5908 477.261 60.5908H446.17C443.961 60.5908 442.17 62.3816 442.17 64.5908V75.7271C442.17 77.9363 443.961 79.7271 446.17 79.7271H480.579C482.789 79.7271 484.579 81.518 484.579 83.7271V93.9999C484.579 96.209 482.789 97.9999 480.579 97.9999H423.67Z" stroke="black" stroke-width="6" mask="url(#path-1-outside-1_833_38377)"/>
<path d="M506.025 23.1817C503.816 23.1817 502.025 21.3908 502.025 19.1817V8.90896C502.025 6.69982 503.816 4.90896 506.025 4.90896H576.707C578.916 4.90896 580.707 6.69982 580.707 8.90896V19.1817C580.707 21.3908 578.916 23.1817 576.707 23.1817H556.479C554.27 23.1817 552.479 24.9725 552.479 27.1817V93.9999C552.479 96.209 550.689 97.9999 548.479 97.9999H534.298C532.089 97.9999 530.298 96.209 530.298 93.9999V27.1817C530.298 24.9726 528.507 23.1817 526.298 23.1817H506.025Z" stroke="black" stroke-width="6" mask="url(#path-1-outside-1_833_38377)"/>
<path d="M652.066 32.818C649.998 32.818 648.364 31.1908 647.588 29.2728C646.906 27.5856 645.833 26.1765 644.368 25.0453C642.004 23.1665 638.626 22.2271 634.232 22.2271C631.323 22.2271 628.898 22.6059 626.959 23.3635C625.02 24.1211 623.565 25.1665 622.595 26.4999C621.626 27.8029 621.126 29.3029 621.095 30.9999C621.035 32.3938 621.308 33.6211 621.914 34.6817C622.55 35.7423 623.459 36.6817 624.641 37.4999C625.853 38.2877 627.308 38.9847 629.005 39.5908C630.701 40.1968 632.611 40.7271 634.732 41.1817L642.732 42.9999C647.338 43.9999 651.398 45.3332 654.914 46.9999C658.459 48.6665 661.429 50.6514 663.823 52.9544C666.247 55.2574 668.08 57.909 669.323 60.909C670.565 63.909 671.201 67.2726 671.232 70.9999C671.201 76.8787 669.717 81.9241 666.777 86.1362C663.838 90.3484 659.611 93.5756 654.095 95.8181C648.611 98.0605 641.989 99.1817 634.232 99.1817C626.444 99.1817 619.656 98.015 613.868 95.6817C608.08 93.3484 603.58 89.8029 600.368 85.0453C597.772 81.1996 596.195 76.5322 595.638 71.043C595.413 68.8257 597.235 66.9999 599.464 66.9999H613.194C615.309 66.9999 616.986 68.6745 617.571 70.7073C617.978 72.1256 618.578 73.3897 619.368 74.4999C620.792 76.4999 622.747 78.015 625.232 79.0453C627.747 80.0756 630.656 80.5908 633.959 80.5908C636.989 80.5908 639.565 80.1817 641.686 79.3635C643.838 78.5453 645.489 77.409 646.641 75.9544C647.792 74.4999 648.383 72.8332 648.414 70.9544C648.383 69.1968 647.838 67.6968 646.777 66.4544C645.717 65.1817 644.08 64.0908 641.868 63.1817C639.686 62.2423 636.898 61.3787 633.505 60.5908L623.777 58.3181C615.717 56.4696 609.368 53.4847 604.732 49.3635C600.095 45.212 597.792 39.6059 597.823 32.5453C597.792 26.7877 599.338 21.7423 602.459 17.409C605.58 13.0756 609.898 9.69684 615.414 7.2726C620.929 4.84835 627.217 3.63623 634.277 3.63623C641.489 3.63623 647.747 4.8635 653.05 7.31805C658.383 9.74229 662.52 13.1514 665.459 17.5453C667.696 20.8894 669.099 24.6372 669.669 28.7887C669.972 30.9935 668.142 32.818 665.917 32.818H652.066Z" stroke="black" stroke-width="6" mask="url(#path-1-outside-1_833_38377)"/>
</svg>
