<svg width="473" height="543" viewBox="0 0 473 543" fill="none" xmlns="http://www.w3.org/2000/svg">
<path d="M198.231 352.366L229.552 535.278C230.169 538.882 233.293 541.516 236.949 541.516C240.605 541.516 243.729 538.882 244.346 535.278L275.667 352.366C276.62 346.8 282.403 343.477 287.691 345.455L461.788 410.585C465.254 411.881 469.149 410.473 470.985 407.26C472.801 404.083 472.075 400.06 469.264 397.717L326.401 278.665C322.069 275.055 322.086 268.395 326.437 264.807L469.217 147.077C472.053 144.738 472.793 140.696 470.969 137.504C469.141 134.305 465.271 132.892 461.812 134.162L287.651 198.062C282.372 199.999 276.629 196.675 275.68 191.132L244.346 8.14315C243.729 4.53944 240.605 1.90479 236.949 1.90479C233.293 1.90479 230.169 4.53945 229.552 8.14316L198.218 191.132C197.269 196.675 191.526 199.999 186.247 198.062L12.0862 134.162C8.62702 132.892 4.75687 134.305 2.92874 137.504C1.10472 140.696 1.84461 144.738 4.68112 147.077L147.461 264.807C151.812 268.395 151.829 275.055 147.497 278.665L4.63397 397.718C1.8225 400.06 1.09698 404.083 2.91271 407.26C4.74886 410.473 8.644 411.881 12.1103 410.585L186.207 345.455C191.495 343.477 197.278 346.8 198.231 352.366Z" stroke="black" stroke-width="2" stroke-linejoin="round"/>
</svg>
