<svg width="469" height="539" viewBox="0 0 469 539" fill="none" xmlns="http://www.w3.org/2000/svg">
<path d="M234.949 538.573C231.78 538.573 229.072 536.29 228.537 533.166L197.217 350.254C196.158 344.07 189.732 340.377 183.856 342.576L9.75987 407.705C6.75288 408.83 3.37382 407.609 1.78095 404.821V404.821C0.205797 402.065 0.835189 398.575 3.27416 396.543L146.137 277.491C150.951 273.479 150.931 266.079 146.097 262.093L3.3173 144.363C0.856418 142.333 0.214512 138.827 1.79698 136.058V136.058C3.38302 133.282 6.74066 132.056 9.74179 133.158L183.902 197.058C189.768 199.21 196.149 195.516 197.203 189.358L228.537 6.36906C229.072 3.24553 231.78 0.961914 234.949 0.961914V0.961914C238.118 0.961914 240.826 3.24551 241.361 6.36905L272.694 189.358C273.749 195.516 280.13 199.21 285.995 197.058L460.156 133.158C463.157 132.056 466.515 133.282 468.101 136.058V136.058C469.683 138.827 469.041 142.333 466.581 144.363L323.801 262.093C318.966 266.079 318.947 273.479 323.761 277.491L466.624 396.543C469.063 398.575 469.692 402.065 468.117 404.821V404.821C466.524 407.609 463.145 408.83 460.138 407.705L286.042 342.576C280.166 340.377 273.74 344.07 272.681 350.254L241.361 533.166C240.826 536.29 238.118 538.573 234.949 538.573V538.573Z" fill="black"/>
</svg>
