<?xml version="1.0" encoding="UTF-8"?>
<svg id="Layer_2" data-name="Layer 2" xmlns="http://www.w3.org/2000/svg" viewBox="0 0 442.97 387.97">
  <g id="Layer_1-2" data-name="Layer 1">
    <g>
      <path d="m85,341.14c0-.17-.03-.34,0-.5.4-1.73.35-4.63,1.29-5,7.71-3,3.39-14.03,11.57-16.71,4.35-1.43,10.38-.38,12.77,3.38,2.8,4.41,3.01,10.1-.88,13.27-2.72,2.22-3.9,4.51-3.99,8.17-.11,4.27-6.45,8.54-10.83,8.21-5.54-.42-9.89-5.16-9.92-10.83Z"/>
      <path d="m136.62,344.14c7.64.9,12.24,6.52,10.26,13.54-1.4,4.95-1.43,10.9-7.69,13.29-4.43,1.69-8.26,1.57-11.73-2.01-3.44-3.54-4.51-7.48-2.42-12.06,1.34-2.91,2.32-6.19,4.35-8.51,1.75-2,4.77-2.88,7.23-4.25Z"/>
      <path d="m167,373.36c.02-7.18,4.28-12.27,10.37-12.36,5.82-.09,10.63,4.95,10.6,11.1-.03,6.85-4.35,11.81-10.34,11.87-6.81.06-10.65-3.77-10.63-10.61Z"/>
      <path d="m211,377.68c-.03-7.08,3.53-10.69,10.51-10.68,5.54,0,10.39,4.77,10.46,10.29.07,5.83-4.75,10.72-10.56,10.68-6.74-.04-10.39-3.64-10.41-10.29Z"/>
      <path d="m381.27,84.97c-6.28-.02-10.24-3.87-10.27-9.95-.02-6.02,4.97-11.17,10.68-11.02,6.23.16,10.31,4.57,10.28,11.09-.03,6.43-3.78,9.9-10.7,9.87Z"/>
      <path d="m418.97,278.23c.03,6.3-4.1,10.74-9.99,10.73-6.06,0-10.83-4.66-10.98-10.73-.15-5.97,4.52-10.27,11.12-10.24,6.21.03,9.82,3.78,9.85,10.23Z"/>
      <path d="m95.34,56.97c-6.75-.02-10.42-3.68-10.34-10.31.07-5.83,4.96-10.74,10.61-10.65,5.49.09,10.34,4.95,10.36,10.4.03,6.99-3.58,10.58-10.63,10.56Z"/>
      <path d="m315,78.28c.02-6.64,3.67-10.25,10.41-10.28,5.68-.03,10.72,5.08,10.56,10.7-.17,5.76-5,10.27-10.99,10.27-6.51,0-10-3.74-9.97-10.69Z"/>
      <path d="m275.97,14.49c0,6.02-4.36,10.43-10.37,10.48-6.17.05-10.7-4.54-10.6-10.74.09-5.86,4.68-10.28,10.61-10.23,6,.05,10.36,4.47,10.36,10.49Z"/>
      <path d="m347.53,331c6.4,0,10.37,3.76,10.44,9.88.06,6.07-4.99,11.49-10.73,11.02-6.31-.52-10.45-4.8-10.29-10.76.18-6.62,3.68-10.15,10.58-10.15Z"/>
      <path d="m265.48,363c6.02,0,10.44,4.36,10.48,10.36.05,6.17-4.54,10.71-10.73,10.61-5.87-.09-10.28-4.67-10.24-10.61.05-6,4.46-10.36,10.48-10.36Z"/>
      <path d="m418.97,109.75c-.03,6.64-3.74,10.31-10.35,10.22-6.33-.08-10.85-4.67-10.62-10.76.21-5.61,5.18-10.22,10.99-10.21,5.88,0,10,4.45,9.97,10.75Z"/>
      <path d="m16.66,140c6.72.02,10.39,3.7,10.31,10.32-.07,5.81-4.95,10.72-10.59,10.64-5.47-.07-10.34-4.93-10.38-10.36-.05-6.82,3.78-10.63,10.66-10.61Z"/>
      <path d="m16.53,247.97c-6.62,0-10.43-3.69-10.54-10.24-.09-5.69,4.86-10.74,10.5-10.73,5.64.02,10.42,4.93,10.46,10.77.05,6.61-3.61,10.19-10.43,10.2Z"/>
      <path d="m187.97,47.94c.01,6.61-4.12,10.99-10.4,11.02-6.04.03-10.51-4.35-10.57-10.36-.05-5.8,4.82-10.66,10.62-10.61,6,.06,10.34,4.23,10.35,9.94Z"/>
      <path d="m51,74.25c.03-6.3,3.93-10.28,10.05-10.25,5.94.03,10.94,5.09,10.91,11.02-.03,5.81-4.62,9.96-11.01,9.95-6.49-.01-9.97-3.76-9.94-10.72Z"/>
      <path d="m347.63,56.97c-6.91.02-10.63-3.48-10.63-9.99,0-5.95,4.52-10.79,10.25-10.97,5.73-.18,10.75,4.99,10.72,11.03-.03,6.1-4,9.91-10.33,9.93Z"/>
      <path d="m167,14.29c.02-6.17,4.21-10.28,10.46-10.29,5.75-.01,10.58,4.89,10.51,10.68-.07,5.49-4.89,10.26-10.4,10.29-6.8.04-10.59-3.8-10.57-10.68Z"/>
      <path d="m391.97,312.86c.55,6.53-4.44,10.73-10.45,11.05-5.58.29-10.41-4.85-10.52-10.73-.11-5.83,4.19-10.14,10.15-10.18,7.01-.04,10.79,3.4,10.82,9.86Z"/>
      <path d="m144.97,26.26c.03,6.94-3.44,10.69-9.91,10.71-6.15.02-11.2-4.85-11.05-10.67.14-5.62,5.11-10.28,10.96-10.29,6.1-.01,9.98,3.97,10.01,10.26Z"/>
      <path d="m416,150.21c.03-6.63,3.75-10.3,10.35-10.21,6.32.09,10.84,4.67,10.61,10.76-.2,5.39-5.17,10.41-10.48,10.15-5.01-.25-11.31-3.26-10.48-10.7Z"/>
      <path d="m52.62,200c6.34.02,10.3,3.82,10.35,9.92.04,6.05-4.97,11.22-10.71,11.05-5.75-.17-10.26-5-10.26-10.96,0-6.52,3.72-10.02,10.62-10Z"/>
      <path d="m283,58.87c.03-5.91,4.8-10.68,10.59-10.57,6.05.11,10.45,4.93,10.37,11.37-.06,5.3-5.44,10.89-10.61,10.14-6.24-.9-11.07-4.86-10.35-10.94Z"/>
      <path d="m48,166.61c-.02-6.64,3.86-10.69,10.13-10.61,5.74.08,10.85,5.03,10.84,10.5,0,5.62-4.92,10.42-10.73,10.47-6.59.06-10.22-3.62-10.24-10.36Z"/>
      <path d="m426.33,247.97c-6.94-.02-10.09-3.63-10.42-10.83-.31-6.78,5.87-10.03,10.79-10.09,5.16-.06,10.65,5.67,10.2,10.7-.47,5.21-3.43,10.93-10.57,10.21Z"/>
      <path d="m57.9,263.97c-6.47-.02-9.93-3.77-9.9-10.71.03-6.29,3.92-10.5,10-10.19,7.3.37,10.15,4.03,10.87,10.76.56,5.26-5.08,10.17-10.96,10.15Z"/>
      <path d="m137.07,55c5.66-1.24,10.17,3.79,10.68,10,.46,5.57-5.36,11.05-10.87,10.96-6.29-.11-9.88-4.07-9.88-10.91,0-6.95,3.1-10.05,10.07-10.05Z"/>
      <path d="m51,313.48c0-6.85,3.56-10.37,10.13-10.53,7.24-.18,10.57,5.49,10.74,10.2.2,5.57-5.6,10.92-11.1,10.81-6.09-.13-9.77-4.08-9.77-10.48Z"/>
      <path d="m65,294.67c-.02-7.13,3.45-10.67,10.48-10.67,5.98,0,10.34,4.1,10.48,9.84.13,5.4-5.45,11.08-10.93,11.12-6.06.04-10-4.01-10.03-10.28Z"/>
      <path d="m298,26.69c-.02-6.67,3.77-10.71,10.04-10.69,5.71.03,10.81,4.91,10.9,10.43.09,5.56-4.87,10.47-10.63,10.54-6.6.07-10.27-3.6-10.3-10.28Z"/>
      <path d="m24,109.41c0-6.35,3.73-10.31,9.81-10.41,5.92-.1,11.34,5.12,11.11,10.71-.23,5.76-5,10.25-10.9,10.26-6.51,0-10.03-3.7-10.03-10.56Z"/>
      <path d="m361.97,104.65c-.02,6.81-3.82,10.45-10.78,10.32-5.23-.09-10.32-5.44-10.14-10.65.19-5.42,5.17-10.33,10.47-10.32,6.93.01,10.48,3.62,10.46,10.65Z"/>
      <path d="m101.95,101.97c-6.48,0-9.97-3.74-9.95-10.63.02-6.32,3.81-10.28,9.89-10.34,5.74-.06,11.08,4.64,10.96,10.28-.15,6.64-5.68,11.52-10.89,10.69Z"/>
      <path d="m231.97,10.47c0,5.55-4.74,10.42-10.24,10.5-6.21.09-10.82-4.52-10.73-10.72.09-5.92,4.69-10.33,10.69-10.25,5.51.07,10.27,4.92,10.27,10.47Z"/>
      <path d="m65,126.3c.02-6.54,3.6-10.28,9.88-10.3,5.91-.02,11.26,4.91,11.07,10.2-.19,5.4-5.48,10.67-10.8,10.76-6.29.11-10.18-3.97-10.16-10.67Z"/>
      <path d="m34.17,268c5.85.04,10.82,4.89,10.76,10.51-.05,5.18-5.72,10.53-11.08,10.46-6.29-.08-9.92-4.12-9.86-10.96.06-6.44,3.73-10.05,10.17-10.01Z"/>
      <path d="m257.87,56.97c-6.27,0-9.89-3.7-9.87-10.07.02-5.88,4.57-10.68,10.31-10.86,4.68-.15,10.92,5.53,10.56,10.27-.43,5.67-2.7,11.63-10.99,10.66Z"/>
      <path d="m211,42.47c-1.34-5.38,4.96-10.1,9.91-10.39,5.41-.33,11.05,5.47,11.04,10.92-.01,5.64-4.48,9.96-10.33,9.97-7.11.02-10.63-3.46-10.63-10.5Z"/>
      <path d="m432.03,184c6.86,0,10.8,3.52,10.94,9.76.13,5.73-4.61,10.7-10.35,10.85-6.14.16-10.64-4.39-10.62-10.73.02-6.24,3.72-9.89,10.03-9.89Z"/>
      <path d="m20.97,194.04c-.01,5.91-4.77,10.72-10.54,10.66-5.82-.06-10.49-4.92-10.42-10.84.07-6.4,3.93-9.91,10.84-9.87,6.49.04,10.15,3.67,10.13,10.04Z"/>
      <path d="m317.97,361.04c0,7.15-3.67,11.07-10.21,10.93-6.18-.14-9.74-3.93-9.76-10.39-.01-6.88,3.51-10.59,10.04-10.58,6.28.01,9.93,3.7,9.93,10.04Z"/>
    </g>
  </g>
</svg>