<svg width="401" height="200" viewBox="0 0 401 200" fill="none" xmlns="http://www.w3.org/2000/svg">
<path d="M183 0C221.666 0 254.877 15.7711 269.312 38.3096C280.849 34.8946 293.597 33 307 33C358.915 33 401 61.4299 401 96.5C401 131.57 358.915 160 307 160C302.491 160 298.056 159.785 293.717 159.37C280.127 183.139 245.979 200 206 200C178.904 200 154.486 192.255 137.331 179.863C124.364 184.422 109.628 187 94 187C42.0852 187 0 158.57 0 123.5C0 89.5325 39.4806 61.7945 89.1338 60.084C91.7611 26.6022 132.782 0 183 0Z" fill="#3FB532"/>
</svg>
